<svg xmlns="http://www.w3.org/2000/svg" xmlns:xlink="http://www.w3.org/1999/xlink" width="16" height="16" viewBox="0 0 16 16">
    <defs>
        <path id="a" d="M8.012 9.02L9 10l-1 1-1-1 .01-.01-.986-.977-1.499 1.483-1.027-.989 1.515-1.495-1.495-1.48.99-1.028 3.506 3.513-.002.002zm2.99-1l1.465 1.484-1.026.985L10 9.033l-.96.97-1.029-.99 3.514-3.506.989.988-1.511 1.525zM1.995 2h12.012C15.106 2 16 2.9 16 4.009v7.982A2.003 2.003 0 0 1 14.006 14H1.994C.894 14 0 13.1 0 11.991V4.01C0 2.902.893 2 1.994 2zm1.008 2C2.45 4 2 4.453 2 4.997v6.006c0 .55.456.997 1.002.997h9.996c.553 0 1.002-.453 1.002-.997V4.997c0-.55-.456-.997-1.002-.997H3.002z"/>
    </defs>
    <g fill="none" fill-rule="evenodd">
        <mask id="b" fill="#fff">
            <use xlink:href="#a"/>
        </mask>
        <g fill="#fff" mask="url(#b)">
            <path d="M0 0h16v16H0z"/>
        </g>
    </g>
</svg>
