<svg xmlns="http://www.w3.org/2000/svg" xmlns:xlink="http://www.w3.org/1999/xlink" width="16" height="16" viewBox="0 0 16 16">
    <defs>
        <path id="a" d="M13.137 9.181a6.25 6.25 0 0 0-7.32-7.32A3.512 3.512 0 0 0 .863 6.815a6.25 6.25 0 0 0 7.32 7.32 3.512 3.512 0 0 0 4.954-4.954zM7.12 11.847c-1.85 0-3.393-.827-3.393-1.837 0-.448.252-.855.827-.855.883 0 .968 1.262 2.482 1.262.73 0 1.192-.323 1.192-.743 0-.519-.449-.603-1.178-.785l-1.206-.295C4.651 8.3 3.726 7.81 3.726 6.434c0-1.668 1.654-2.285 3.07-2.285 1.557 0 3.128.617 3.128 1.556 0 .477-.323.898-.856.898-.799 0-.827-.94-2.117-.94-.715 0-1.178.197-1.178.631 0 .477.463.59 1.094.73l.855.196c1.164.266 2.552.757 2.552 2.188 0 1.668-1.612 2.44-3.155 2.44z"/>
    </defs>
    <g fill="none" fill-rule="evenodd" transform="translate(1)">
        <mask id="b" fill="#fff">
            <use xlink:href="#a"/>
        </mask>
        <use fill="#000" fill-rule="nonzero" xlink:href="#a"/>
        <g fill="#fff" mask="url(#b)">
            <path d="M-1 0h16v16H-1z"/>
        </g>
    </g>
</svg>
