<svg width="20" height="19" viewBox="0 0 20 19" fill="none" xmlns="http://www.w3.org/2000/svg">
<path d="M10.0086 0C7.42636 0 7.10455 0.0124688 6.09398 0.0552187C5.07927 0.105094 4.39289 0.262437 3.78727 0.497562C3.15342 0.736856 2.57938 1.11151 2.10517 1.59541C1.61993 2.0685 1.24506 2.64286 1.00733 3.2775C0.772203 3.88312 0.614859 4.5695 0.564984 5.58422C0.519266 6.59537 0.509766 6.91659 0.509766 9.49881C0.509766 12.081 0.522234 12.4028 0.564984 13.4134C0.614859 14.4252 0.772203 15.1145 1.00733 15.7201C1.24662 16.354 1.62127 16.928 2.10517 17.4022C2.57827 17.8875 3.15263 18.2623 3.78727 18.5001C4.39289 18.7322 5.08223 18.8925 6.09398 18.9424C7.10514 18.9881 7.42636 18.9976 10.0086 18.9976C12.5908 18.9976 12.9126 18.9852 13.9232 18.9424C14.9349 18.8925 15.6243 18.7316 16.2299 18.5001C16.8637 18.2608 17.4378 17.8861 17.912 17.4022C18.3979 16.9296 18.7728 16.3551 19.0098 15.7201C19.242 15.1145 19.4023 14.4252 19.4522 13.4134C19.4979 12.4022 19.5074 12.081 19.5074 9.49881C19.5074 6.91659 19.4949 6.59478 19.4522 5.58422C19.4023 4.57247 19.2414 3.87956 19.0098 3.2775C18.7705 2.64365 18.3959 2.06961 17.912 1.59541C17.4394 1.10953 16.8649 0.734575 16.2299 0.497562C15.6243 0.262437 14.9349 0.105094 13.9232 0.0552187C12.912 0.0095 12.5908 0 10.0086 0ZM10.0086 1.71C12.5445 1.71 12.8473 1.72247 13.8495 1.76522C14.774 1.80856 15.2775 1.96294 15.6118 2.09356C16.0251 2.24611 16.3991 2.48891 16.7067 2.80428C17.0215 3.11055 17.2634 3.48374 17.4144 3.89619C17.545 4.23047 17.6994 4.73397 17.7428 5.65844C17.7855 6.66069 17.798 6.96409 17.798 9.4994C17.798 12.0347 17.7855 12.3381 17.7392 13.3404C17.6893 14.2648 17.535 14.7683 17.4049 15.1026C17.225 15.5485 17.0243 15.8602 16.693 16.1975C16.3844 16.5109 16.0106 16.7525 15.5981 16.9052C15.268 17.0359 14.7574 17.1902 13.8294 17.2336C12.8218 17.2763 12.5249 17.2888 9.98245 17.2888C7.44002 17.2888 7.14373 17.2763 6.13495 17.23C5.21048 17.1802 4.70045 17.0258 4.36617 16.8957C3.91492 16.7158 3.60558 16.5152 3.27427 16.1838C2.93998 15.8496 2.72742 15.5313 2.56355 15.089C2.43055 14.7588 2.27855 14.2482 2.22927 13.3202C2.19542 12.3245 2.17939 12.0157 2.17939 9.48516C2.17939 6.95578 2.19542 6.64644 2.22927 5.63825C2.27855 4.71022 2.43055 4.20078 2.56355 3.86947C2.72742 3.41762 2.94058 3.10887 3.27427 2.77459C3.60498 2.44387 3.91492 2.23012 4.36617 2.06269C4.70045 1.93266 5.19802 1.77828 6.12605 1.73197C7.13364 1.69575 7.43052 1.68269 9.96939 1.68269L10.0086 1.71ZM10.0086 4.62353C9.36813 4.6233 8.7339 4.74927 8.14216 4.99425C7.55041 5.23924 7.01274 5.59842 6.55987 6.05129C6.107 6.50416 5.74781 7.04183 5.50283 7.63358C5.25785 8.22532 5.13188 8.85955 5.13211 9.5C5.13188 10.1405 5.25785 10.7747 5.50283 11.3664C5.74781 11.9582 6.107 12.4958 6.55987 12.9487C7.01274 13.4016 7.55041 13.7608 8.14216 14.0057C8.7339 14.2507 9.36813 14.3767 10.0086 14.3765C10.649 14.3767 11.2833 14.2507 11.875 14.0057C12.4667 13.7608 13.0044 13.4016 13.4573 12.9487C13.9102 12.4958 14.2693 11.9582 14.5143 11.3664C14.7593 10.7747 14.8853 10.1405 14.885 9.5C14.8853 8.85955 14.7593 8.22532 14.5143 7.63358C14.2693 7.04183 13.9102 6.50416 13.4573 6.05129C13.0044 5.59842 12.4667 5.23924 11.875 4.99425C11.2833 4.74927 10.649 4.6233 10.0086 4.62353ZM10.0086 12.6665C8.2582 12.6665 6.84211 11.2504 6.84211 9.5C6.84211 7.74962 8.2582 6.33353 10.0086 6.33353C11.759 6.33353 13.175 7.74962 13.175 9.5C13.175 11.2504 11.759 12.6665 10.0086 12.6665ZM16.2216 4.42878C16.2213 4.73139 16.1008 5.02151 15.8867 5.23537C15.6726 5.44924 15.3824 5.56937 15.0798 5.56937C14.9302 5.56937 14.782 5.5399 14.6438 5.48264C14.5055 5.42538 14.3799 5.34145 14.2741 5.23565C14.1683 5.12985 14.0844 5.00424 14.0271 4.866C13.9699 4.72776 13.9404 4.5796 13.9404 4.42997C13.9404 4.28034 13.9699 4.13218 14.0271 3.99394C14.0844 3.8557 14.1683 3.73009 14.2741 3.62429C14.3799 3.51848 14.5055 3.43455 14.6438 3.37729C14.782 3.32003 14.9302 3.29056 15.0798 3.29056C15.7074 3.29056 16.2216 3.80119 16.2216 4.42878Z" fill="#636871"/>
</svg>
