<svg width="20" height="16" viewBox="0 0 20 16" fill="none" xmlns="http://www.w3.org/2000/svg">
<path d="M19.5082 1.88204C18.791 2.19142 18.0105 2.41407 17.2066 2.50079C18.0413 2.00494 18.6663 1.22157 18.9645 0.297666C18.1812 0.763578 17.3232 1.09028 16.4285 1.26329C16.0546 0.863509 15.6023 0.545025 15.0999 0.327683C14.5974 0.110342 14.0556 -0.00119949 13.5082 9.7275e-06C11.2934 9.7275e-06 9.51211 1.79532 9.51211 3.99845C9.51211 4.30782 9.54961 4.6172 9.61055 4.91485C6.29414 4.74142 3.33633 3.15704 1.36992 0.73126C1.01162 1.34325 0.82386 2.04007 0.826172 2.74923C0.826172 4.13673 1.53164 5.36017 2.60742 6.0797C1.97345 6.05473 1.35432 5.88047 0.800391 5.5711V5.62032C0.800391 7.56329 2.17383 9.17345 4.0043 9.54376C3.66061 9.63303 3.30705 9.6787 2.95195 9.6797C2.6918 9.6797 2.4457 9.65392 2.19727 9.61876C2.70352 11.2031 4.17773 12.3539 5.9332 12.3914C4.55977 13.4672 2.83945 14.1 0.971485 14.1C0.636328 14.1 0.326953 14.0883 0.00585938 14.0508C1.77773 15.1875 3.88008 15.8438 6.14414 15.8438C13.4941 15.8438 17.516 9.7547 17.516 4.46954C17.516 4.2961 17.516 4.12267 17.5043 3.94923C18.2824 3.3797 18.9645 2.67423 19.5082 1.88204Z" fill="#636871"/>
</svg>
