<svg width="21" height="12" viewBox="0 0 21 12" fill="none" xmlns="http://www.w3.org/2000/svg">
<path d="M19.5849 0.806183C19.7249 0.341183 19.5849 0.000183105 18.9229 0.000183105H16.7299C16.1719 0.000183105 15.9169 0.295184 15.7769 0.619184C15.7769 0.619184 14.6619 3.33818 13.0819 5.10118C12.5719 5.61418 12.3389 5.77618 12.0609 5.77618C11.9219 5.77618 11.7199 5.61418 11.7199 5.14918V0.806183C11.7199 0.248183 11.5589 0.000183105 11.0939 0.000183105H7.64786C7.29986 0.000183105 7.08986 0.258183 7.08986 0.504183C7.08986 1.03218 7.87986 1.15418 7.96086 2.64218V5.87018C7.96086 6.57718 7.83386 6.70618 7.55386 6.70618C6.81086 6.70618 5.00286 3.97718 3.92986 0.853183C3.72086 0.246183 3.50986 0.00118351 2.94986 0.00118351H0.757859C0.130859 0.00118351 0.00585938 0.296183 0.00585938 0.620183C0.00585938 1.20218 0.748859 4.08218 3.46686 7.89118C5.27886 10.4922 7.82986 11.9022 10.1539 11.9022C11.5469 11.9022 11.7189 11.5892 11.7189 11.0492V9.08318C11.7189 8.45718 11.8519 8.33118 12.2929 8.33118C12.6169 8.33118 13.1749 8.49518 14.4759 9.74818C15.9619 11.2342 16.2079 11.9012 17.0429 11.9012H19.2349C19.8609 11.9012 20.1739 11.5882 19.9939 10.9702C19.7969 10.3552 19.0869 9.46018 18.1449 8.40118C17.6329 7.79718 16.8679 7.14718 16.6349 6.82218C16.3099 6.40318 16.4039 6.21818 16.6349 5.84618C16.6359 5.84718 19.3069 2.08518 19.5849 0.806183Z" fill="#636871"/>
</svg>
