<svg width="17" height="19" viewBox="0 0 17 19" fill="none" xmlns="http://www.w3.org/2000/svg">
<path d="M6.84336 0H5.77461L5.06211 2.73125L4.34961 0H3.16211C3.39961 0.7125 3.63711 1.30625 3.87461 2.01875C4.23086 2.96875 4.46836 3.8 4.46836 4.275V7.125H5.53711V4.275L6.84336 0ZM9.69336 5.34375V3.5625C9.69336 2.96875 9.57461 2.6125 9.33711 2.25625C9.09961 1.9 8.74336 1.78125 8.26836 1.78125C7.79336 1.78125 7.43711 2.01875 7.19961 2.375C6.96211 2.6125 6.84336 2.96875 6.84336 3.5625V5.4625C6.84336 6.05625 6.96211 6.4125 7.19961 6.65C7.43711 7.00625 7.79336 7.125 8.26836 7.125C8.74336 7.125 9.09961 6.8875 9.33711 6.53125C9.57461 6.4125 9.69336 5.9375 9.69336 5.34375ZM8.74336 5.58125C8.74336 6.05625 8.62461 6.29375 8.26836 6.29375C7.91211 6.29375 7.79336 6.05625 7.79336 5.58125V3.325C7.79336 2.85 7.91211 2.6125 8.26836 2.6125C8.62461 2.6125 8.74336 2.85 8.74336 3.325V5.58125ZM13.2559 7.125V1.78125H12.3059V5.81875C12.0684 6.175 11.9496 6.29375 11.7121 6.29375C11.5934 6.29375 11.4746 6.175 11.4746 6.05625V1.78125H10.5246V5.9375C10.5246 6.29375 10.5246 6.53125 10.6434 6.76875C10.6434 7.00625 10.8809 7.125 11.2371 7.125C11.5934 7.125 11.9496 6.8875 12.3059 6.53125V7.125H13.2559Z" fill="#636871"/>
<path d="M13.7309 12.4688C13.3746 12.4688 13.2559 12.7063 13.2559 13.1813V13.6562H14.2059V13.1813C14.2059 12.7063 14.0871 12.4688 13.7309 12.4688Z" fill="#636871"/>
<path d="M10.2875 12.4688C10.1687 12.4688 9.93125 12.5875 9.8125 12.7062V15.9125C9.93125 16.0313 10.1687 16.15 10.2875 16.15C10.525 16.15 10.6437 15.9125 10.6437 15.4375V13.1813C10.6437 12.7063 10.525 12.4688 10.2875 12.4688Z" fill="#636871"/>
<path d="M16.1055 9.85629C15.868 9.02504 15.1555 8.31254 14.443 8.31254C12.543 8.07504 10.5242 8.07504 8.50547 8.07504C6.48672 8.07504 4.58672 8.07504 2.56797 8.31254C1.85547 8.31254 1.14297 9.02504 0.905469 9.85629C0.667969 11.0438 0.667969 12.35 0.667969 13.5375C0.667969 14.725 0.667969 16.0313 0.905469 17.2188C1.14297 18.05 1.73672 18.6438 2.56797 18.7625C4.58672 19 6.48672 19 8.50547 19C10.5242 19 12.4242 19 14.443 18.7625C15.2742 18.6438 15.9867 18.05 16.1055 17.2188C16.343 16.0313 16.343 14.725 16.343 13.5375C16.343 12.35 16.343 11.0438 16.1055 9.85629ZM5.18047 10.925H3.99297V16.9813H2.92422V10.925H1.85547V9.85629H5.18047V10.925ZM8.03047 16.9813H7.08047V16.3875C6.72422 16.8625 6.36797 16.9813 6.01172 16.9813C5.65547 16.9813 5.53672 16.8625 5.41797 16.625C5.41797 16.5063 5.29922 16.2688 5.29922 15.7938V11.6375H6.24922V15.7938C6.24922 15.9125 6.36797 16.0313 6.48672 16.0313C6.72422 16.0313 6.84297 15.9125 7.08047 15.5563V11.6375H8.03047V16.9813ZM11.593 15.3188C11.593 15.7938 11.593 16.15 11.4742 16.3875C11.3555 16.7438 11.118 16.9813 10.7617 16.9813C10.4055 16.9813 10.0492 16.7438 9.81172 16.3875V16.8625H8.86172V9.85629H9.81172V12.1125C10.168 11.7563 10.4055 11.5188 10.7617 11.5188C11.118 11.5188 11.3555 11.7563 11.4742 12.1125C11.593 12.35 11.593 12.7063 11.593 13.1813V15.3188ZM15.1555 14.4875H13.2555V15.4375C13.2555 15.9125 13.3742 16.15 13.7305 16.15C13.968 16.15 14.0867 16.0313 14.2055 15.7938V15.2H15.1555V15.9125C15.1555 16.15 15.0367 16.2688 14.918 16.5063C14.6805 16.8625 14.3242 17.1 13.7305 17.1C13.2555 17.1 12.8992 16.8625 12.543 16.5063C12.3055 16.2688 12.1867 15.7938 12.1867 15.3188V13.5375C12.1867 12.9438 12.3055 12.5875 12.4242 12.35C12.6617 11.9938 13.018 11.7563 13.6117 11.7563C14.0867 11.7563 14.443 11.9938 14.6805 12.35C14.918 12.5875 14.918 13.0625 14.918 13.5375V14.4875H15.1555Z" fill="#636871"/>
</svg>
