<svg id="Иконка" xmlns="http://www.w3.org/2000/svg" width="17.969" height="18" viewBox="0 0 17.969 18">
  <defs>
    <style>
      .cls-1 {
        fill: #4a5056;
        fill-rule: evenodd;
      }
    </style>
  </defs>
  <path id="Фигура_512" data-name="Фигура 512" class="cls-1" d="M322.952,3166.3a0.539,0.539,0,0,0-.425-0.38l-5.573-.85-2.493-5.29a0.514,0.514,0,0,0-.944,0l-2.493,5.29-5.573.85a0.538,0.538,0,0,0-.425.38,0.578,0.578,0,0,0,.133.57l4.033,4.12-0.952,5.81a0.559,0.559,0,0,0,.209.54,0.517,0.517,0,0,0,.31.11,0.531,0.531,0,0,0,.245-0.06l4.985-2.75,4.985,2.75a0.509,0.509,0,0,0,.554-0.05,0.56,0.56,0,0,0,.21-0.54l-0.952-5.81,4.033-4.12A0.581,0.581,0,0,0,322.952,3166.3Z" transform="translate(-305 -3159.47)"/>
</svg>
