<svg width="403" height="153" viewBox="0 0 403 153" fill="none" xmlns="http://www.w3.org/2000/svg">
<path d="M114.301 109C114.301 109.6 114.701 110 115.301 110H126.901C127.501 110 127.901 109.6 127.901 109V83.8C127.901 77.5 131.201 74.2 136.401 74.2C141.601 74.2 144.601 77.4 144.601 83.8V109C144.601 109.6 145.001 110 145.601 110H157.201C157.801 110 158.201 109.6 158.201 109V79.6C158.201 68.8 152.201 62.2 141.901 62.2C135.001 62.2 131.001 65.8 127.901 69.7V51.5C127.901 50.9 127.501 50.5 126.901 50.5H115.301C114.701 50.5 114.301 50.9 114.301 51.5V109Z" fill="white"/>
<path d="M183.502 110.9C190.102 110.9 194.702 108.5 198.002 104.9V109C198.002 109.6 198.402 110 199.002 110H210.102C210.702 110 211.102 109.6 211.102 109V82.6999C211.102 76.3999 209.502 71.1999 205.902 67.6999C202.502 64.3999 197.102 62.3999 189.702 62.3999C182.002 62.3999 177.002 63.6999 172.002 65.7999C171.502 65.9999 171.302 66.4999 171.402 66.9999L174.202 75.2999C174.402 75.7999 175.002 76.0999 175.502 75.8999C179.502 74.4999 183.002 73.6999 187.802 73.6999C194.602 73.6999 198.102 76.7999 198.102 82.2999V83.0999C194.702 81.9999 191.202 81.1999 186.402 81.1999C175.102 81.1999 167.102 85.8999 167.102 96.1999C167.102 105.8 174.502 110.9 183.502 110.9ZM187.602 101.7C183.202 101.7 180.202 99.5999 180.202 95.9999C180.202 91.5999 183.802 89.2999 189.602 89.2999C192.902 89.2999 195.902 89.9999 198.302 91.0999V93.4999C198.202 98.1999 193.902 101.7 187.602 101.7Z" fill="white"/>
<path d="M222.799 109C222.799 109.6 223.199 110 223.799 110H235.399C235.999 110 236.399 109.6 236.399 109V83.8001C236.399 77.5001 239.499 74.2001 244.599 74.2001C249.699 74.2001 252.499 77.4001 252.499 83.8001V109C252.499 109.6 252.899 110 253.499 110H265.099C265.699 110 266.099 109.6 266.099 109V83.8001C266.099 77.5001 269.199 74.2001 274.299 74.2001C279.399 74.2001 282.199 77.4001 282.199 83.8001V109C282.199 109.6 282.599 110 283.199 110H294.799C295.399 110 295.799 109.6 295.799 109V79.4001C295.799 68.1001 289.699 62.1001 279.599 62.1001C273.099 62.1001 268.099 64.7001 263.899 69.5001C261.399 64.8001 256.699 62.1001 250.399 62.1001C243.499 62.1001 239.399 65.7001 236.299 69.6001V64.0001C236.299 63.4001 235.899 63.0001 235.299 63.0001H223.699C223.099 63.0001 222.699 63.4001 222.699 64.0001V109H222.799Z" fill="white"/>
<path d="M307.602 123C307.602 123.6 308.002 124 308.602 124H320.202C320.802 124 321.202 123.6 321.202 123V103.8C324.402 107.6 328.902 110.8 336.102 110.8C347.402 110.8 357.902 102.2 357.902 86.5C357.902 70.6 347.302 62 336.102 62C329.002 62 324.502 65.2 321.202 69.6V64C321.202 63.4 320.802 63 320.202 63H308.602C308.002 63 307.602 63.4 307.602 64V123ZM332.602 99.5C326.302 99.5 321.002 94.3 321.002 86.5C321.002 78.5 326.302 73.4 332.602 73.4C338.902 73.4 344.302 78.6 344.302 86.4C344.302 94.5 339.002 99.5 332.602 99.5Z" fill="white"/>
<path d="M384.699 110.9C395.099 110.9 402.999 106.2 402.999 95.6999C402.999 86.8999 395.199 83.7999 388.499 81.5999C383.299 79.7999 378.799 78.5999 378.799 75.9999C378.799 73.9999 380.499 72.5999 383.799 72.5999C387.099 72.5999 391.399 74.0999 395.899 76.4999C396.399 76.7999 396.999 76.5999 397.299 76.0999L401.499 68.5999C401.799 68.0999 401.599 67.5999 401.199 67.2999C396.099 64.1999 389.899 62.3999 384.099 62.3999C374.499 62.3999 366.599 67.6999 366.599 77.2999C366.599 86.5999 374.199 89.6999 380.899 91.5999C386.199 93.1999 390.799 94.0999 390.799 96.9999C390.799 99.2999 388.999 100.7 385.099 100.7C380.899 100.7 375.799 98.9999 370.899 95.6999C370.399 95.3999 369.799 95.4999 369.499 95.9999L364.799 103.1C364.499 103.5 364.599 104.1 364.999 104.4C371.099 108.8 378.299 110.9 384.699 110.9Z" fill="white"/>
<path d="M73.2992 25.6C75.0992 25.1 76.1992 23.3 75.7992 21.5L71.6992 3.70004C71.1992 1.70004 69.1992 0.400044 67.0992 0.900044C65.0992 1.40004 63.7992 3.50004 64.3992 5.50004L69.1992 23.2C69.6992 25 71.4992 26.1 73.2992 25.6ZM107.499 6.70004C107.999 4.70004 106.799 2.70004 104.799 2.20004C102.799 1.70004 100.899 3.00004 100.399 4.90004L96.4992 21.6C96.0992 23.4 97.1992 25.1 98.9992 25.6C100.699 26 102.499 25 102.899 23.3L107.499 6.70004ZM86.3992 24C88.1992 24 89.6992 22.6 89.6992 20.8L89.9992 7.10004C89.9992 5.00004 88.3992 3.30004 86.2992 3.30004C84.1992 3.30004 82.5992 5.00004 82.5992 7.10004L82.9992 20.7C83.0992 22.6 84.5992 24 86.3992 24ZM118.199 23C119.199 21.2 118.499 19 116.699 18.1C114.899 17.2 112.699 18 111.799 19.8L109.299 25.4C108.599 27 109.199 29 110.799 29.8C112.399 30.6 114.399 30 115.199 28.4L118.199 23ZM61.0992 30.3C62.6992 29.5 63.3992 27.6 62.6992 25.9L61.7992 23.7C60.9992 21.7 58.5992 20.8 56.6992 21.8C54.8992 22.8 54.1992 25 55.1992 26.8L56.2992 28.9C57.2992 30.6 59.3992 31.2 61.0992 30.3ZM50.1992 37.9C51.4992 36.7 51.6992 34.7 50.4992 33.4L41.2992 22.9C39.9992 21.4 37.6992 21.2 36.1992 22.6C34.6992 24 34.5992 26.3 36.0992 27.8L45.7992 37.8C46.9992 39 48.9992 39.1 50.1992 37.9ZM42.5992 46.4C43.5992 45 43.2992 43.1 41.9992 42.1L23.7992 28.8C22.2992 27.7 20.0992 28 18.9992 29.5C17.8992 31.1 18.2992 33.2 19.8992 34.3L38.3992 47.1C39.6992 48.1 41.5992 47.8 42.5992 46.4ZM36.8992 56.2C37.5992 54.7 36.8992 52.9 35.3992 52.2L4.89924 38.4C3.19924 37.6 1.09924 38.3 0.299239 40.1C-0.500761 41.9 0.399239 43.9 2.09924 44.6L32.8992 57.8C34.4992 58.5 36.1992 57.8 36.8992 56.2ZM33.3992 67C33.6992 65.4 32.7992 63.8 31.2992 63.4L21.1992 60.6C19.2992 60.1 17.2992 61.2 16.8992 63.1C16.4992 64.9 17.6992 66.7 19.4992 67.1L29.6992 69.4C31.3992 69.7001 33.0992 68.6 33.3992 67ZM32.1992 78.3C32.1992 76.6001 30.8992 75.2 29.1992 75.2H6.29924C4.39924 75.2 2.79924 76.7 2.79924 78.6C2.79924 80.5 4.39924 82 6.29924 82L29.1992 81.4C30.8992 81.4 32.1992 80 32.1992 78.3ZM33.3992 89.7C32.9992 88 31.4992 86.9 29.7992 87.2L27.9992 87.5C26.1992 87.8 24.8992 89.6 25.2992 91.4C25.6992 93.3 27.6992 94.4 29.5992 93.8L31.2992 93.3C32.7992 92.9 33.6992 91.3 33.3992 89.7ZM36.8992 100.4C36.1992 98.9 34.4992 98.2001 32.9992 98.8L17.4992 104.9C15.6992 105.6 14.7992 107.7 15.5992 109.5C16.3992 111.2 18.3992 112 20.0992 111.2L35.2992 104.6C36.8992 103.7 37.5992 101.9 36.8992 100.4ZM42.5992 110.3C41.5992 108.9 39.6992 108.6 38.2992 109.6L15.9992 126.6C14.4992 127.7 14.1992 129.8 15.2992 131.3C16.3992 132.9 18.6992 133.1 20.1992 131.9L42.0992 114.4C43.2992 113.4 43.5992 111.6 42.5992 110.3ZM50.2992 118.8C48.9992 117.6 46.9992 117.7 45.6992 118.9L42.7992 122C41.3992 123.4 41.4992 125.7 42.9992 127.1C44.4992 128.5 46.8992 128.2 48.0992 126.6L50.6992 123.3C51.7992 121.9 51.5992 119.9 50.2992 118.8ZM60.9992 126.3C59.3992 125.4 57.2992 126 56.3992 127.6L50.5992 137.8C49.4992 139.7 50.1992 142 52.0992 143C53.9992 144 56.2992 143.2 57.1992 141.3L62.4992 130.8C63.2992 129.1 62.5992 127.1 60.9992 126.3ZM115.899 136.4C117.799 135.4 118.399 133.1 117.299 131.3L115.199 128C114.299 126.5 112.399 126.1 110.899 126.8C109.299 127.6 108.599 129.6 109.399 131.3L111.099 134.8C111.999 136.5 114.099 137.3 115.899 136.4ZM73.2992 131C71.4992 130.6 69.6992 131.5 69.0992 133.3L68.2992 135.7C67.5992 137.7 68.7992 139.9 70.8992 140.5C72.9992 141 74.9992 139.7 75.3992 137.6L75.8992 135.1C76.2992 133.2 75.0992 131.5 73.2992 131ZM105.299 152.3C107.399 151.8 108.599 149.6 107.899 147.5L102.999 133.2C102.499 131.6 100.799 130.7 99.0992 131.1C97.2992 131.5 96.1992 133.4 96.6992 135.2L100.999 149.7C101.499 151.6 103.399 152.7 105.299 152.3ZM89.6992 135.9C89.6992 134.1 88.1992 132.6 86.3992 132.6C84.5992 132.6 83.0992 134.1 83.0992 135.9V149.4C83.0992 151.2 84.5992 152.7 86.3992 152.7C88.2992 152.7 89.7992 151.2 89.7992 149.4V135.9H89.6992Z" fill="#FF5A00"/>
<path d="M87.0016 57.8999C76.0016 57.8999 67.0016 66.8999 67.1016 77.9999C67.1016 88.9999 76.1016 97.9999 87.2016 97.8999C91.0016 97.8999 94.6016 96.7999 97.6016 94.9999C98.1016 94.6999 98.8016 94.7999 99.0016 95.3999C100.202 97.5999 102.402 101.5 103.802 104.2C104.002 104.7 103.902 105.2 103.402 105.5C98.6016 108.3 93.1016 110 87.2016 110C69.6016 109.9 55.2016 95.6999 55.1016 77.9999C55.1016 60.2999 69.3016 45.8999 87.0016 45.8999C93.4016 45.8999 99.4016 47.7999 104.502 50.9999C104.902 51.2999 105.102 51.7999 104.802 52.2999C103.102 55.4999 101.402 58.6999 99.9016 61.0999C99.6016 61.5999 98.9016 61.6999 98.4016 61.3999C95.2016 59.1999 91.3016 57.8999 87.0016 57.8999Z" fill="white"/>
</svg>
