<svg xmlns="http://www.w3.org/2000/svg" xmlns:xlink="http://www.w3.org/1999/xlink" width="17px" height="34px">
    <path fill-rule="evenodd" fill="rgb(45, 49, 53)" d="M-0.000,8.225 L17.000,-0.001 L17.000,33.999 L-0.000,25.774 L-0.000,8.225 Z"/>
    <path fill-rule="evenodd" fill="rgb(255, 255, 255)" d="M5.163,16.609 L9.707,12.159 C9.813,12.056 9.953,11.999 10.103,11.999 C10.252,11.999 10.392,12.056 10.498,12.159 L10.832,12.487 C11.050,12.700 11.050,13.047 10.832,13.260 L7.016,16.997 L10.836,20.738 C10.942,20.841 11.000,20.978 11.000,21.125 C11.000,21.272 10.942,21.409 10.836,21.512 L10.502,21.839 C10.397,21.943 10.256,21.999 10.107,21.999 C9.957,21.999 9.817,21.943 9.712,21.839 L5.163,17.386 C5.057,17.282 4.999,17.144 5.000,16.998 C4.999,16.850 5.057,16.712 5.163,16.609 Z"/>
</svg>