<svg width="248" height="94" viewBox="0 0 248 94" fill="none" xmlns="http://www.w3.org/2000/svg">
<g clip-path="url(#clip0)">
<path d="M70.3398 66.9673C70.3398 67.3359 70.586 67.5817 70.9552 67.5817H78.0937C78.4629 67.5817 78.7091 67.3359 78.7091 66.9673V51.4849C78.7091 47.6144 80.7398 45.5869 83.9398 45.5869C87.1398 45.5869 88.986 47.5529 88.986 51.4849V66.9673C88.986 67.3359 89.2321 67.5817 89.6014 67.5817H96.7398C97.1091 67.5817 97.3552 67.3359 97.3552 66.9673V48.9046C97.3552 42.2693 93.6629 38.2144 87.3244 38.2144C83.0783 38.2144 80.6168 40.4261 78.7091 42.8222V31.6405C78.7091 31.2719 78.4629 31.0261 78.0937 31.0261H70.9552C70.586 31.0261 70.3398 31.2719 70.3398 31.6405V66.9673Z" fill="black"/>
<path d="M112.924 68.1346C116.986 68.1346 119.817 66.6601 121.847 64.4483V66.9673C121.847 67.3359 122.094 67.5817 122.463 67.5817H129.294C129.663 67.5817 129.909 67.3359 129.909 66.9673V50.8091C129.909 46.9385 128.924 43.7438 126.709 41.5934C124.617 39.566 121.294 38.3372 116.74 38.3372C112.001 38.3372 108.924 39.1359 105.847 40.4261C105.54 40.549 105.417 40.8562 105.478 41.1634L107.201 46.2627C107.324 46.5699 107.694 46.7542 108.001 46.6313C110.463 45.7712 112.617 45.2797 115.57 45.2797C119.755 45.2797 121.909 47.1843 121.909 50.5634V51.0549C119.817 50.379 117.663 49.8875 114.709 49.8875C107.755 49.8875 102.832 52.7751 102.832 59.1032C102.832 65.0013 107.386 68.1346 112.924 68.1346ZM115.447 62.4823C112.74 62.4823 110.894 61.1921 110.894 58.9804C110.894 56.2771 113.109 54.864 116.678 54.864C118.709 54.864 120.555 55.2941 122.032 55.9699V57.4444C121.97 60.332 119.324 62.4823 115.447 62.4823Z" fill="black"/>
<path d="M137.108 66.9673C137.108 67.336 137.355 67.5817 137.724 67.5817H144.862C145.231 67.5817 145.478 67.336 145.478 66.9673V51.485C145.478 47.6144 147.385 45.5869 150.524 45.5869C153.662 45.5869 155.385 47.553 155.385 51.485V66.9673C155.385 67.336 155.631 67.5817 156.001 67.5817H163.139C163.508 67.5817 163.755 67.336 163.755 66.9673V51.485C163.755 47.6144 165.662 45.5869 168.801 45.5869C171.939 45.5869 173.662 47.553 173.662 51.485V66.9673C173.662 67.336 173.908 67.5817 174.278 67.5817H181.416C181.785 67.5817 182.031 67.336 182.031 66.9673V48.7817C182.031 41.8392 178.278 38.153 172.062 38.153C168.062 38.153 164.985 39.7503 162.401 42.6994C160.862 39.8118 157.97 38.153 154.093 38.153C149.847 38.153 147.324 40.3647 145.416 42.7608V39.3203C145.416 38.9516 145.17 38.7059 144.801 38.7059H137.662C137.293 38.7059 137.047 38.9516 137.047 39.3203V66.9673H137.108Z" fill="black"/>
<path d="M189.293 75.5686C189.293 75.9372 189.539 76.183 189.908 76.183H197.047C197.416 76.183 197.662 75.9372 197.662 75.5686V63.7725C199.631 66.1072 202.401 68.0732 206.831 68.0732C213.785 68.0732 220.247 62.7895 220.247 53.1438C220.247 43.3752 213.724 38.0915 206.831 38.0915C202.462 38.0915 199.693 40.0575 197.662 42.7608V39.3203C197.662 38.9516 197.416 38.7059 197.047 38.7059H189.908C189.539 38.7059 189.293 38.9516 189.293 39.3203V75.5686ZM204.678 61.1307C200.801 61.1307 197.539 57.9359 197.539 53.1438C197.539 48.2287 200.801 45.0954 204.678 45.0954C208.555 45.0954 211.878 48.2902 211.878 53.0823C211.878 58.0588 208.616 61.1307 204.678 61.1307Z" fill="black"/>
<path d="M236.74 68.1346C243.14 68.1346 248.002 65.247 248.002 58.796C248.002 53.3895 243.202 51.4849 239.079 50.1333C235.879 49.0274 233.109 48.2902 233.109 46.6928C233.109 45.464 234.156 44.6039 236.186 44.6039C238.217 44.6039 240.863 45.5255 243.633 47C243.94 47.1843 244.309 47.0614 244.494 46.7542L247.079 42.1464C247.263 41.8392 247.14 41.532 246.894 41.3477C243.756 39.4431 239.94 38.3372 236.371 38.3372C230.463 38.3372 225.602 41.5934 225.602 47.4915C225.602 53.2052 230.279 55.1098 234.402 56.2771C237.663 57.2601 240.494 57.813 240.494 59.5947C240.494 61.0078 239.386 61.8679 236.986 61.8679C234.402 61.8679 231.263 60.8235 228.248 58.796C227.94 58.6117 227.571 58.6732 227.386 58.9804L224.494 63.3424C224.309 63.5882 224.371 63.9568 224.617 64.1411C228.371 66.8444 232.802 68.1346 236.74 68.1346Z" fill="black"/>
<path d="M45.1087 15.7281C46.2164 15.4209 46.8933 14.315 46.6472 13.2091L44.1241 2.2732C43.8164 1.04444 42.5856 0.245745 41.2933 0.552934C40.0626 0.860124 39.2626 2.15032 39.6318 3.37908L42.5856 14.2536C42.8933 15.3595 44.001 16.0353 45.1087 15.7281ZM66.1549 4.11633C66.4626 2.88757 65.7241 1.65882 64.4933 1.35163C63.2626 1.04444 62.0933 1.84313 61.7857 3.01045L59.3857 13.2706C59.1395 14.3765 59.8164 15.4209 60.9241 15.7281C61.9703 15.9739 63.078 15.3595 63.3241 14.315L66.1549 4.11633ZM53.1703 14.7451C54.278 14.7451 55.201 13.885 55.201 12.7791L55.3857 4.36208C55.3857 3.07189 54.401 2.02744 53.1087 2.02744C51.8164 2.02744 50.8318 3.07189 50.8318 4.36208L51.078 12.7176C51.1395 13.885 52.0626 14.7451 53.1703 14.7451ZM72.7395 14.1307C73.3549 13.0248 72.9241 11.6732 71.8164 11.1203C70.7087 10.5673 69.3549 11.0588 68.801 12.1647L67.2626 15.6052C66.8318 16.5882 67.201 17.817 68.1857 18.3085C69.1703 18.8 70.401 18.4314 70.8933 17.4484L72.7395 14.1307ZM37.601 18.6157C38.5856 18.1242 39.0164 16.9569 38.5857 15.9124L38.0318 14.5608C37.5395 13.332 36.0626 12.7791 34.8933 13.3935C33.7856 14.0078 33.3549 15.3595 33.9703 16.4654L34.6472 17.7555C35.2626 18.8 36.5549 19.1686 37.601 18.6157ZM30.8933 23.285C31.6933 22.5477 31.8164 21.3189 31.078 20.5203L25.4164 14.0693C24.6164 13.1477 23.201 13.0248 22.278 13.885C21.3549 14.7451 21.2933 16.1582 22.2164 17.0797L28.1856 23.2235C28.9241 23.9608 30.1549 24.0222 30.8933 23.285ZM26.2164 28.5072C26.8318 27.6471 26.6472 26.4797 25.8472 25.8654L14.6472 17.6941C13.7241 17.0183 12.3703 17.2026 11.6933 18.1242C11.0164 19.1072 11.2626 20.3974 12.2472 21.0732L23.6318 28.9372C24.4318 29.5516 25.601 29.3673 26.2164 28.5072ZM22.7087 34.5281C23.1395 33.6065 22.7087 32.5006 21.7857 32.0706L3.01642 23.5921C1.97026 23.1006 0.677957 23.5307 0.185649 24.6366C-0.306658 25.7425 0.247188 26.9712 1.29334 27.4013L20.2472 35.5111C21.2318 35.9412 22.278 35.5111 22.7087 34.5281ZM20.5549 41.1634C20.7395 40.1804 20.1856 39.1974 19.2626 38.9516L13.0472 37.2314C11.878 36.9242 10.6472 37.6 10.401 38.7673C10.1549 39.8732 10.8933 40.9791 12.001 41.2248L18.278 42.6379C19.3241 42.8222 20.3703 42.1464 20.5549 41.1634ZM19.8164 48.1059C19.8164 47.0614 19.0164 46.2013 17.9703 46.2013H3.87796C2.70873 46.2013 1.72411 47.1229 1.72411 48.2902C1.72411 49.4575 2.70873 50.3791 3.87796 50.3791L17.9703 50.0105C19.0164 50.0105 19.8164 49.1503 19.8164 48.1059ZM20.5549 55.1098C20.3087 54.0654 19.3857 53.3895 18.3395 53.5738L17.2318 53.7582C16.1241 53.9425 15.3241 55.0484 15.5703 56.1542C15.8164 57.3216 17.0472 57.9974 18.2164 57.6288L19.2626 57.3216C20.1856 57.0758 20.7395 56.0928 20.5549 55.1098ZM22.7087 61.6837C22.278 60.7621 21.2318 60.332 20.3087 60.7007L10.7703 64.4484C9.66257 64.8784 9.10873 66.1686 9.60104 67.2745C10.0933 68.319 11.3241 68.8105 12.3703 68.3189L21.7241 64.264C22.7087 63.7111 23.1395 62.6052 22.7087 61.6837ZM26.2164 67.766C25.601 66.9059 24.4318 66.7216 23.5703 67.3359L9.84719 77.7804C8.92411 78.4562 8.7395 79.7464 9.41642 80.668C10.0933 81.651 11.5087 81.7738 12.4318 81.0366L25.9087 70.285C26.6472 69.6706 26.8318 68.5647 26.2164 67.766ZM30.9549 72.9882C30.1549 72.251 28.9241 72.3124 28.1241 73.0497L26.3395 74.9542C25.478 75.8144 25.5395 77.2274 26.4626 78.0876C27.3856 78.9477 28.8626 78.7634 29.601 77.7804L31.201 75.7529C31.878 74.8928 31.7549 73.6641 30.9549 72.9882ZM37.5395 77.5961C36.5549 77.0431 35.2626 77.4118 34.7087 78.3948L31.1395 84.6614C30.4626 85.8288 30.8933 87.2418 32.0626 87.8562C33.2318 88.4706 34.6472 87.9791 35.201 86.8118L38.4626 80.3608C38.9549 79.3163 38.5241 78.0876 37.5395 77.5961ZM71.3241 83.8013C72.4933 83.1869 72.8626 81.7739 72.1857 80.668L70.8933 78.6405C70.3395 77.7189 69.1703 77.4732 68.2472 77.9033C67.2626 78.3948 66.8318 79.6235 67.3241 80.668L68.3703 82.8183C68.9241 83.8627 70.2164 84.3542 71.3241 83.8013ZM45.1087 80.4837C44.001 80.2379 42.8933 80.7908 42.5241 81.8967L42.0318 83.3712C41.601 84.6 42.3395 85.9516 43.6318 86.3203C44.9241 86.6274 46.1549 85.8288 46.401 84.5386L46.7087 83.0026C46.9549 81.8353 46.2164 80.7908 45.1087 80.4837ZM64.801 93.5699C66.0933 93.2627 66.8318 91.9111 66.401 90.6209L63.3857 81.8353C63.078 80.8523 62.0318 80.2993 60.9856 80.5451C59.878 80.7908 59.201 81.9582 59.5087 83.064L62.1549 91.9725C62.4626 93.1399 63.6318 93.8157 64.801 93.5699ZM55.201 83.4941C55.201 82.3882 54.278 81.4667 53.1703 81.4667C52.0626 81.4667 51.1395 82.3882 51.1395 83.4941V91.7882C51.1395 92.8941 52.0626 93.8157 53.1703 93.8157C54.3395 93.8157 55.2626 92.8941 55.2626 91.7882V83.4941H55.201Z" fill="#FF5A00"/>
<path d="M53.537 35.5726C46.7678 35.5726 41.2293 41.102 41.2909 47.9216C41.2909 54.6798 46.8293 60.2092 53.6601 60.1477C55.9986 60.1477 58.2139 59.4719 60.0601 58.366C60.3678 58.1817 60.7986 58.2432 60.9216 58.6118C61.6601 59.9634 63.0139 62.3595 63.8755 64.0183C63.9986 64.3255 63.937 64.6327 63.6293 64.817C60.6755 66.5373 57.2909 67.5817 53.6601 67.5817C42.8293 67.5203 33.9678 58.7961 33.9062 47.9216C33.9062 37.0471 42.6447 28.2 53.537 28.2C57.4755 28.2 61.1678 29.3673 64.3062 31.3333C64.5524 31.5177 64.6755 31.8248 64.4909 32.132C63.4447 34.0981 62.3986 36.0641 61.4755 37.5386C61.2909 37.8458 60.8601 37.9072 60.5524 37.7229C58.5832 36.3713 56.1832 35.5726 53.537 35.5726Z" fill="black"/>
</g>
<defs>
<clipPath id="clip0">
<rect width="248" height="94" fill="white"/>
</clipPath>
</defs>
</svg>
