<svg xmlns="http://www.w3.org/2000/svg" xmlns:xlink="http://www.w3.org/1999/xlink" viewBox="0 0 2500 1037.59"><defs><style>.cls-1{fill:url(#Безымянный_градиент_5);}.cls-2{fill:url(#Безымянный_градиент_5-2);}</style><linearGradient id="Безымянный_градиент_5" x1="939.4" y1="518.8" x2="1738.69" y2="518.8" gradientUnits="userSpaceOnUse"><stop offset="0" stop-color="#ffb842"/><stop offset="1" stop-color="#fa822c"/></linearGradient><linearGradient id="Безымянный_градиент_5-2" x1="0" y1="671.37" x2="2500" y2="671.37" xlink:href="#Безымянный_градиент_5"/></defs><title>КС</title><g id="Слой_2" data-name="Слой 2"><g id="Слой_1-2" data-name="Слой 1"><path class="cls-1" d="M1247.3,2.53c16.54-5.73,34.61-.94,49.77,6.53,10.59,6.82,21.19,13.72,33,18.18.91,1.7,2.79,5.08,3.7,6.74-.47,1.13-1.38,3.45-1.85,4.58,8.45,19.22,13.86,42,5.66,62.21-5.59,6.82-15.31,7.88-23.18,10.52,0,9.75,1.52,19.41,2.36,29.09,16.83,2.73,31.08-9,47.73-7.83,2.25-9.32,4-18.8,7-27.94,3.44,6.06,3.59,13,3.63,19.85,4.35,1.23,8.78,2.36,13.23,3.44,0,1.67.08,5,.08,6.68,73,.44,145.94-.33,218.93.4-.18,2.5-.53,7.51-.68,10,1.89,0,5.73,0,7.65,0-.07-13.28,0-26.59,0-39.87,1.85-.07,5.48-.18,7.3-.22,0,10.45.07,20.9.18,31.35,1.59,2,4.79,5.87,6.39,7.83,1.2-1.42,3.59-4.2,4.78-5.62,5.55,5.19,2.39,12.3,2.15,18.68,20.42-.22,41.06,1.15,61.42-.51,1.52-1.13,4.57-3.34,6.09-4.46,2.8,1.08,5.62,2.17,8.42,3.3,9.18-.23,18.39-.26,27.61-.29-.19,4.75-.34,9.5-.52,14.26-11.86-.19-23.76-.44-35.44,1.59-7.55-6.49-17.67-4.43-26.78-4.68-14,.66-28.45-1.81-42,2.65-8.06,2.25-16.9,1.71-24-2.87-1.71,4.25.9,13.75-6.25,13.38-28.15.37-56.27-.25-84.38.19-3.85,2-7.73,3.95-11.57,5.84-4.06,12.11-15.71,20.2-25.62,27.6-1.23,18.61,6.13,36,9,54.05-5.55,1.59-11.14,3.23-16.62,5-7.87,18.57-3,43.93-21.25,56.88-14,8.13-23.21,25.79-42,23,9.58,8-2.61,5.48-1.34-.9-34.07-3-62.76-23-92.37-38.24a239.34,239.34,0,0,1-5.8,24.71c11.25,2.14,20.53,10.41,22.53,21.95,3.59,25.14-3.59,50.11-3.48,75.31.79,14.81-5.56,28.37-13.46,40.45-6.93,7.84-17.85-.22-26.16-1.38-1.89,3.67-3.74,7.33-5.55,11,2.36,9.86,3.37,20.13,6.67,29.78,18.54,20.5,35.41,42.7,48.36,67.19a889.73,889.73,0,0,1,35.6,85.11c1,5.62,6.3,7.64,11,9.68.62,5.81,1.24,11.6,1.82,17.49q2.71,4,5.55,8c1.12,35.78-3.27,71.4-8.82,106.7-3.44,15.93,5.87,31.49,2.1,47.52.44,8.21-5.22,14.41-7.87,21.67-.51,16.94-1.34,34.09.51,51,1.3,12.4,11.79,20.38,18.9,29.64,7.77,8.23,14.26,19.3,26,22.23a122.54,122.54,0,0,1,31.37,14.37c3,7.36,2.43,15.17,1,22.81-21.25,3.92-43,2-64.43,2.3-16.55.86-31.3-8-47.38-9.88-15.57-.39-34.54,7.33-46.5-6.6,5.07-19.33,5.48-40.08,14.75-58.12,3-20.42-2.67-41.14-1.48-61.74-1.77-1.49-5.34-4.46-7.11-6,1.27-13.45-5.37-25.43-7.59-38.31-1.44-18.8-3.15-37.58-5.33-56.3-1.7-9.11,3-17.45,9.43-23.51.58-10.52,2-20.93,3-31.38-1.56-6.78-7-11.82-10.45-17.63-11.65,4.91-27.36,2.58-34.29-8.82-16.43-24.45-32.83-48.9-49.44-73.21-6.53-.43-13.43.26-19.52-2.35-7-7.22-10.7-16.83-15.19-25.61-6.43,7.22-6,18.28-13.57,24.85-16.11,15.46-20.39,38.17-28.81,58-6.45,12.84-2.82,28.33-10,40.85-3.84,6.74-13.49,8.08-16,15.78-3.34,8.3-7.26,16.91-15.06,21.95-8.45,5.55-10.7,16.08-14.47,24.78-3.44,8,1.67,16.43.48,24.67-5.37,26.16-22,48-29,73.65-3.19,11.53-7.76,24.52-21.19,27-15.27,27.28-23.68,60.66-15,91.38,5.3,9.65,5,20.5,3.37,31.13-24.26,1.89-49.15,5.15-73-1.63-5.59-11.07-4.79-24.09-3.63-36.06,7.36-31.46,17.12-62.36,23.1-94.14-7.47-6.64-5.72-16.79-5.58-25.69-.25-16.57,11-29.85,18.86-43.46,2.94-14,1.57-29,8.78-41.79,8.49-16,15.67-33.37,28.77-46.33,2.5-11.42,10.93-20,14.33-31.06,3.63-9.72-2.72-19.59-1.44-29.52,3.11-30.16,8.59-60,13.35-89.94-9-7.51-6.1-19.44-9-29.57a68.8,68.8,0,0,1,5.33-11.5c-2.25-2.06-4.46-4.17-6.71-6.23,2.17-10.64,1.56-29.69,17.88-26.23,1-35.23-11.21-69.33-7.11-104.59,2.18,2.53,4.32,5.11,6.5,7.69l-1.17-11.94a76,76,0,0,1,21.7-7.84c-12.41-1.62-24.49-4.78-36.65-7.61-2.94-7.73-1.3-16-.22-23.87,4.72-26.71,6.46-53.77,7.44-80.83,13.75-4.78,28.91-.72,42.34-7.11-4.17-33.85-5.22-69.18,6.82-101.65,9.68-27.65,28.19-54.32,57.06-64,13.64-3.27,30.8-6.93,40.45,6.31,2.64-2.43,5.29-4.94,7.94-7.37-22-43.73,4.28-107.61,54.25-116.61m176.2,189.66c-5.81,3.56-11.5,7.63-5.4,14.08-3,1.78-6,3.49-9,5.11-4.72,3.63-15.31,5.7-14.08,13a176.55,176.55,0,0,1,13.65,26.73c11.57-9.5,20.78-22.27,27-35.8,1.31-1.34,4-4,5.26-5.33a60.23,60.23,0,0,0-4.39-18c-4.35.08-8.74.15-13.09.18Z"/><path class="cls-2" d="M1529.94,517c16.61-21,43.46-32.57,70.08-32.14q121.51.12,243.06,0c39.52.83,78,31.71,82.61,71.84-112.13-.38-224.24.32-336.33-.38-.11,75-.26,150.09,0,225.15,86.05-.14,172.09-.29,258.15.07-.33-26.88.1-53.76-.25-80.64-42.55.24-85.11.33-127.66,0-34.14-1.31-59.53-30.8-67.22-62.22q137.23-.48,274.44,0c-.4,46,.22,92-.33,137.93-1.09,38.71-34.39,72.78-72.56,76.66l-264.83,0c-26.37-.19-49.7-16.84-64.57-37.63-10.16-14.69-12.45-32.94-13.9-50.25-.14-61.67.08-123.38-.07-185C1510.89,558,1514.85,534.37,1529.94,517Zm535.2-29.6c9.12-2.47,18.61-2.65,28-2.54,74.88.23,149.79-.25,224.67.18,42.44,1.82,79.73,38.46,81.37,81q.12,103.23,0,206.54c-.76,42.18-38.13,81.51-81,80.79-82.35-.37-164.7.25-247.06-.29-41.06-4.57-72.59-43.79-72.88-84.39-.58-62.76.07-125.59-.33-188.35-.32-18.5,3-37.51,12.81-53.47,11.5-20.07,32.1-34.11,54.37-39.52m12.92,67c.15,77.42-.32,154.87.22,232.29,80.43.22,160.9,0,241.32.1.25-77.48,0-155,.11-232.51-80.54,0-161.11-.17-241.65.12ZM.13,572.75c1.71-42,36.86-81.41,79.63-83q119.87-.12,239.8,0c43.17-.44,79.13,38.56,82.38,80.39-5.77.48-11.53.83-17.3.91-95.16-.11-190.32,0-285.44-.08,0,67.62-.4,135.24.18,202.87q151.5-.23,303,0C399.48,817.22,363,855.69,319,857.39c-72.41,1-144.82,0-217.24.48-18,.61-36.6-1.64-52.85-9.88C20.88,833.67,1.07,804.46.1,772.75c-.08-66.68-.19-133.32,0-200Zm478.72-32.86c13.32-29.07,43.79-50.65,76.23-50.25q119.71.11,239.51,0c41.68.26,78.39,36.75,81.33,77.93-105.28,1.49-210.63.22-315.94.62-.48,21.18-.26,42.37-.29,63.59,78.29.25,156.61.07,234.9.07,23.21.91,47.59,8.35,63.41,26.3,17.77,15.9,25.28,40.09,25.86,63.39.4,23.25.4,46.62-3.37,69.65-8.64,37.29-44.3,65.08-82.35,66.28-76.11.72-152.26.07-228.37.36-18,.37-36.53-2.21-52.46-11-25.25-13.18-43.39-39.67-45.89-68.1,107.17.51,214.37.32,321.53.07.26-22.57.11-45.13.11-67.69-79.3-.54-158.64-.08-238-.23-45.6.37-85.94-41.53-84.72-87,1.6-28-4.85-58.07,8.49-84.08ZM2424,497.19c10.09-.26,20.28-.66,30.33.87a61.26,61.26,0,0,1-14.22,1.88c-.62,10.93-.69,21.85-.54,32.76-1.06,0-3.12,0-4.14,0,.07-11.21.18-22.41,0-33.59-2.83.23-8.46.73-11.25.94l-.22-2.89Zm36-.41,8.68.44a211.36,211.36,0,0,0,11.21,28.8c4.2-9.4,7-19.41,11.6-28.55l8.12-1.19c-1.12,13.35,3.49,28.11-3.73,40.26-1.3-11.82-.76-23.73-1.52-35.59-5.52,11.07-8.13,23.51-15.35,33.74-5.51-10.51-7.87-22.49-14.47-32.42-.43,10.59-.22,21.22-.36,31.84l-3.88-.44c0-12.29-.19-24.59-.3-36.89Z"/></g></g></svg>