<svg width="31" height="35" viewBox="0 0 31 35" fill="none" xmlns="http://www.w3.org/2000/svg">
<path d="M12.0074 14.5059C11.0209 14.5059 10.2422 15.3704 10.2422 16.4251C10.2422 17.4798 11.0383 18.3443 12.0074 18.3443C12.9938 18.3443 13.7726 17.4798 13.7726 16.4251C13.7899 15.3704 12.9938 14.5059 12.0074 14.5059ZM18.324 14.5059C17.3376 14.5059 16.5588 15.3704 16.5588 16.4251C16.5588 17.4798 17.3549 18.3443 18.324 18.3443C19.3104 18.3443 20.0892 17.4798 20.0892 16.4251C20.0892 15.3704 19.3104 14.5059 18.324 14.5059Z" fill="white"/>
<path d="M26.7375 0H3.54769C1.59213 0 0 1.59072 0 3.56184V26.9385C0 28.9097 1.59213 30.5004 3.54769 30.5004H23.1725L22.2553 27.3016L24.4704 29.3592L26.5644 31.2957L30.2852 34.5809V3.56184C30.2852 1.59072 28.693 0 26.7375 0ZM20.0574 22.5813C20.0574 22.5813 19.4344 21.8379 18.9152 21.1808C21.1823 20.5411 22.0476 19.1233 22.0476 19.1233C21.3381 19.5901 20.6631 19.9186 20.0574 20.1434C19.1921 20.5065 18.3615 20.7486 17.5481 20.8869C15.8867 21.1981 14.3638 21.1117 13.0659 20.8696C12.0795 20.6794 11.2315 20.4027 10.5219 20.1261C10.1239 19.9705 9.69125 19.7803 9.25861 19.5382C9.20669 19.5036 9.15477 19.4864 9.10285 19.4518C9.06824 19.4345 9.05093 19.4172 9.03363 19.3999C8.72212 19.227 8.54907 19.106 8.54907 19.106C8.54907 19.106 9.37975 20.4892 11.5776 21.1462C11.0584 21.8033 10.4181 22.5813 10.4181 22.5813C6.59351 22.4603 5.13982 19.9532 5.13982 19.9532C5.13982 14.3857 7.63186 9.87285 7.63186 9.87285C10.1239 8.00548 12.4948 8.05736 12.4948 8.05736L12.6678 8.26484C9.5528 9.16395 8.11642 10.5299 8.11642 10.5299C8.11642 10.5299 8.49715 10.3224 9.13746 10.0285C10.9892 9.21582 12.4602 8.99104 13.0659 8.93917C13.1697 8.92188 13.2562 8.90459 13.3601 8.90459C14.4157 8.76626 15.6098 8.73168 16.8559 8.87001C18.4999 9.0602 20.2651 9.54434 22.0649 10.5299C22.0649 10.5299 20.6977 9.23311 17.7558 8.334L17.998 8.05736C17.998 8.05736 20.3689 8.00548 22.861 9.87285C22.861 9.87285 25.353 14.3857 25.353 19.9532C25.353 19.9532 23.882 22.4603 20.0574 22.5813Z" fill="white"/>
</svg>
