<svg xmlns="http://www.w3.org/2000/svg" xmlns:xlink="http://www.w3.org/1999/xlink" viewBox="0 0 397.88 395.75"><defs><style>.cls-1{fill:url(#Безымянный_градиент_5);}</style><linearGradient id="Безымянный_градиент_5" y1="197.87" x2="397.88" y2="197.87" gradientUnits="userSpaceOnUse"><stop offset="0" stop-color="#ffb842"/><stop offset="1" stop-color="#fa822c"/></linearGradient></defs><title>ДОТА</title><g id="Слой_2" data-name="Слой 2"><g id="Capa_1" data-name="Capa 1"><path class="cls-1" d="M397.88,91.91c-1.56-73.66-1.66-57.74-.14-80.69a2.47,2.47,0,0,0-2.3-2.63C285.76,1.08,281.61.22,273.11.22,123.49.21,202-2.24,2.33,9.54A2.48,2.48,0,0,0,0,12.14C12.87,259.08,12.4,218.8,5.83,383.38a2.46,2.46,0,0,0,1.9,2.5c15,3.53,12.3,2.14,47.17,2.17.05,0,65.34-7.11,65.4-7.12.3.05,90.27,14.82,90.59,14.82h.2c105.44-8.84,75.22-6.7,143.25-10.47l39.94,8.08a2.47,2.47,0,0,0,3-2.45C396.38,310.48,397.88,91.91,397.88,91.91ZM235.74,86l1.25-.31,28.43-6.41c14.56-3.65,16.71-4.54,29.18-10.4h0c5.75,2,21.53,10.73,25.53,15.74,2.64,3.32,2.46,4.06,1.63,7.61-.16.68-.34,1.47-.53,2.39l0,.19-6.26,48.92c-6.18.23-6.7-.24-8.41-1.82a23.06,23.06,0,0,0-3.13-2.5c-9.41-6.31-40.2-29.09-49.92-36.93L234.37,87.16l.16-.15a2.71,2.71,0,0,0,.51-.74A3,3,0,0,1,235.74,86ZM280,332.37C279.48,331.81,41.14,79.14,41,78.79l20.82-16,291,192.68c-2.4,6.89-3.36,14.8-4.81,21.36-5.11,23.2-11.68,33.34-22,55.38C311.28,332.83,281.05,332.71,280,332.37ZM63.22,264c2.68-6.44,6.37-16.79,9.46-22,15.22,9.51,74.68,69.25,79.85,77.31-2.86,1.07-15.17,2.9-35.61,11.06-13,5.17-25.17,10.07-37,6.06-1.18-.4-4.32-3.06-9-7.08a153.52,153.52,0,0,0-20.68-15.27C42.64,309.54,43.83,310.49,63.22,264Z"/></g></g></svg>