<svg xmlns="http://www.w3.org/2000/svg" xmlns:xlink="http://www.w3.org/1999/xlink" viewBox="0 0 1581 441"><defs><style>.cls-1{fill:url(#Безымянный_градиент_5);}.cls-2{fill:url(#Безымянный_градиент_5-2);}.cls-3{fill:url(#Безымянный_градиент_5-3);}.cls-4{fill:url(#Безымянный_градиент_5-4);}.cls-5{fill:url(#Безымянный_градиент_5-5);}.cls-6{fill:url(#Безымянный_градиент_5-6);}.cls-7{fill:url(#Безымянный_градиент_5-7);}.cls-8{fill:url(#Безымянный_градиент_5-8);}</style><linearGradient id="Безымянный_градиент_5" y1="220.5" x2="180.1" y2="220.5" gradientUnits="userSpaceOnUse"><stop offset="0" stop-color="#ffb842"/><stop offset="1" stop-color="#fa822c"/></linearGradient><linearGradient id="Безымянный_градиент_5-2" x1="1416" y1="218" x2="1581" y2="218" xlink:href="#Безымянный_градиент_5"/><linearGradient id="Безымянный_градиент_5-3" x1="852" y1="208.84" x2="1075.51" y2="208.84" xlink:href="#Безымянный_градиент_5"/><linearGradient id="Безымянный_градиент_5-4" x1="174.16" y1="212.7" x2="407.71" y2="212.7" xlink:href="#Безымянный_градиент_5"/><linearGradient id="Безымянный_градиент_5-5" x1="420" y1="215.14" x2="647.61" y2="215.14" xlink:href="#Безымянный_градиент_5"/><linearGradient id="Безымянный_градиент_5-6" x1="643" y1="208.5" x2="842" y2="208.5" xlink:href="#Безымянный_градиент_5"/><linearGradient id="Безымянный_градиент_5-7" x1="1094" y1="219.5" x2="1193" y2="219.5" xlink:href="#Безымянный_градиент_5"/><linearGradient id="Безымянный_градиент_5-8" x1="1204" y1="229.05" x2="1406" y2="229.05" xlink:href="#Безымянный_градиент_5"/></defs><title>фортайт</title><g id="Слой_2" data-name="Слой 2"><g id="Слой_1-2" data-name="Слой 1"><path class="cls-1" d="M0,220.5C0,341.8.3,441,.7,441c.6,0,82.1-15.1,92.1-17.1l5.2-1V261h62V246.2c0-8.1.3-29.2.7-47l.6-32.2H98V96h36.5c20.1,0,36.5-.2,36.5-.5,0-1.1,8-86.5,8.5-90.8l.6-4.7H0Z"/><path class="cls-2" d="M1495.8,12.9,1416,19.5V417.9l3.3.5c2.9.5,157.4,11.7,160.5,11.6.9,0,1.2-10.6,1.2-49.5V331h-68V259h58V173h-60V116l2.3-.4c1.2-.3,11.4-.7,22.7-1.1s26-.8,32.8-1.2l12.2-.6V6l-2.7.1C1576.7,6.2,1539.6,9.2,1495.8,12.9Z"/><path class="cls-3" d="M983.5,26.7c1,10,12.4,160.7,12.2,160.9s-14.8-35.9-32.7-80.2-32.8-81-33.2-81.7c-.6-1.1-28.2,4-73.5,13.6l-4.3.9V384h89l-.5-7.2c-1-13.4-4.7-124.2-4.3-128.6.3-3.9,3.3,2.9,31.7,71.5,17.2,41.7,31.8,76.2,32.2,76.8.6.6,14.5-.3,38.1-2.3,20.5-1.8,37.3-3.4,37.3-3.5s-.4-72.2-1.1-160.2-1.3-171.1-1.3-184.8L1073,21H982.9Z"/><path class="cls-4" d="M279.5,27.1C219.7,31.1,186.8,72,176.4,155c-2.1,17.2-3,75.6-1.5,96,5,66.2,22.9,109.2,54.7,131.1,17.1,11.7,42.8,18,68.2,16.5,28.9-1.6,48.6-9.8,66.3-27.5,14.5-14.5,22.4-28.1,30-51.3,10.6-32.4,15.4-80.8,13-131.2-2.7-56.4-11.2-91.5-28.7-118.4-16.7-25.6-43.1-40.9-73.9-42.8-4.9-.3-10.1-.6-11.5-.8S285.6,26.7,279.5,27.1Zm14.1,78.6c7.3,7.9,10.4,39.4,10.4,106.8,0,83-5.2,117.5-16.6,110.1-4.9-3.3-8.6-19.4-10.4-46.1-1.3-19.5-1.3-108.8,0-127.5,1.9-26.4,5.3-41,10.4-44.5C290.2,102.5,290.7,102.6,293.6,105.7Z"/><path class="cls-5" d="M420,208.9V391h91.7l.6-12.7c.4-7.1,1.2-30.1,1.8-51.3s1.4-39.8,1.8-41.3c.5-2.1,4.8,11.4,18,57,9.6,32.9,17.7,60.2,18.1,60.6.8.9,94.6-6.5,95.6-7.5.3-.4-10.1-33.1-23.1-72.9l-23.6-72.2,5-4.4c16.6-14.5,30.3-42.5,34.2-70.2,1.7-12.1.6-42.1-2-53.2-10-43.5-36.5-77.3-70.3-89.9-14.7-5.4-13.5-5.3-83-5.7L420,26.9Zm103.1-95.8c7.1,3.5,12.9,12.5,16,24.9,2.1,8.3,1.8,34.6-.5,43-4.3,15.8-11.9,25-23.3,28.5l-2.3.6V110l3.3.7A31,31,0,0,1,523.1,113.1Z"/><path class="cls-6" d="M643,74.5V121h51V389h96V137h52V44l-2.2-.4C837.7,43.1,647,27.9,644.3,28,643.3,28,643,38,643,74.5Z"/><path class="cls-7" d="M1094,219.5V401h99V38h-99Z"/><path class="cls-8" d="M1306,50.6c-54.2,2.9-99.3,5.3-100.2,5.3-1.7.1-1.8,3-1.8,47.1v47h51V413h97V139h54V92c0-25.9-.3-46.9-.7-46.9S1360.2,47.6,1306,50.6Z"/></g></g></svg>