<svg width="38" height="38" viewBox="0 0 38 38" fill="none" xmlns="http://www.w3.org/2000/svg">
<rect x="1.47266" y="1.4007" width="35.159" height="35.159" rx="17.5795" fill="#FF5A00" stroke="url(#paint0_linear)"/>
<g opacity="0.5" filter="url(#filter0_f)">
<path opacity="0.9" d="M22.3818 18.9802C22.3818 27.4787 21.7632 34.368 21.7632 34.368C21.7632 34.368 21.1445 27.4787 21.1445 18.9802C21.1445 10.4818 21.7632 3.59241 21.7632 3.59241C21.7632 3.59241 22.3818 10.4818 22.3818 18.9802Z" fill="#FFA14A"/>
<path opacity="0.85" d="M23.8302 18.9802C23.8302 26.8474 24.3868 33.2249 24.3868 33.2249C24.3868 33.2249 24.9434 26.8474 24.9434 18.9802C24.9434 11.1131 24.3868 4.73553 24.3868 4.73553C24.3868 4.73553 23.8302 11.1131 23.8302 18.9802Z" fill="#FFA14A"/>
<path opacity="0.8" d="M26.329 18.5126C26.329 25.5803 26.81 31.3098 26.81 31.3098C26.81 31.3098 27.291 25.5803 27.291 18.5126C27.291 11.445 26.81 5.71545 26.81 5.71545C26.81 5.71545 26.329 11.445 26.329 18.5126Z" fill="#FFA14A"/>
<path opacity="0.7" d="M28.6765 18.5126C28.6765 24.2648 29.0551 28.9279 29.0551 28.9279C29.0551 28.9279 29.4336 24.2648 29.4336 18.5126C29.4336 12.7604 29.0551 8.09729 29.0551 8.09729C29.0551 8.09729 28.6765 12.7604 28.6765 18.5126Z" fill="#FFA14A"/>
<path opacity="0.5" d="M30.8197 18.5127C30.8197 22.26 31.0925 25.2979 31.0925 25.2979C31.0925 25.2979 31.3652 22.26 31.3652 18.5127C31.3652 14.7653 31.0925 11.7275 31.0925 11.7275C31.0925 11.7275 30.8197 14.7653 30.8197 18.5127Z" fill="#FFA14A"/>
<path opacity="0.4" d="M32.7511 18.5127C32.7511 21.0041 32.8755 23.0238 32.8755 23.0238C32.8755 23.0238 33 21.0041 33 18.5127C33 16.0212 32.8755 14.0015 32.8755 14.0015C32.8755 14.0015 32.7511 16.0212 32.7511 18.5127Z" fill="#FFA14A"/>
<path opacity="0.9" d="M15.7198 18.9802C15.7198 27.4787 16.3384 34.368 16.3384 34.368C16.3384 34.368 16.957 27.4787 16.957 18.9802C16.957 10.4818 16.3384 3.59241 16.3384 3.59241C16.3384 3.59241 15.7198 10.4818 15.7198 18.9802Z" fill="#FFA14A"/>
<path opacity="0.85" d="M14.2733 18.9802C14.2733 26.8474 13.7167 33.2249 13.7167 33.2249C13.7167 33.2249 13.1602 26.8474 13.1602 18.9802C13.1602 11.1131 13.7167 4.73553 13.7167 4.73553C13.7167 4.73553 14.2733 11.1131 14.2733 18.9802Z" fill="#FFA14A"/>
<path opacity="0.8" d="M11.7725 18.5126C11.7725 25.5803 11.2915 31.3098 11.2915 31.3098C11.2915 31.3098 10.8105 25.5803 10.8105 18.5126C10.8105 11.445 11.2915 5.71545 11.2915 5.71545C11.2915 5.71545 11.7725 11.445 11.7725 18.5126Z" fill="#FFA14A"/>
<path opacity="0.7" d="M9.42308 18.5126C9.42308 24.2648 9.04455 28.9279 9.04455 28.9279C9.04455 28.9279 8.66602 24.2648 8.66602 18.5126C8.66602 12.7604 9.04455 8.09729 9.04455 8.09729C9.04455 8.09729 9.42308 12.7604 9.42308 18.5126Z" fill="#FFA14A"/>
<path opacity="0.5" d="M7.28189 18.5127C7.28189 22.26 7.00911 25.2979 7.00911 25.2979C7.00911 25.2979 6.73633 22.26 6.73633 18.5127C6.73633 14.7653 7.00911 11.7275 7.00911 11.7275C7.00911 11.7275 7.28189 14.7653 7.28189 18.5127Z" fill="#FFA14A"/>
<path opacity="0.4" d="M5.35242 18.5127C5.35242 21.0041 5.22797 23.0238 5.22797 23.0238C5.22797 23.0238 5.10352 21.0041 5.10352 18.5127C5.10352 16.0212 5.22797 14.0015 5.22797 14.0015C5.22797 14.0015 5.35242 16.0212 5.35242 18.5127Z" fill="#FFA14A"/>
</g>
<rect x="2.47266" y="2.4007" width="33.159" height="33.159" rx="16.5795" stroke="#FF6D1D"/>
<defs>
<filter id="filter0_f" x="4.10352" y="2.59241" width="29.8973" height="32.7756" filterUnits="userSpaceOnUse" color-interpolation-filters="sRGB">
<feFlood flood-opacity="0" result="BackgroundImageFix"/>
<feBlend mode="normal" in="SourceGraphic" in2="BackgroundImageFix" result="shape"/>
<feGaussianBlur stdDeviation="0.5" result="effect1_foregroundBlur"/>
</filter>
<linearGradient id="paint0_linear" x1="-3.57819" y1="-16.0328" x2="22.4681" y2="18.9802" gradientUnits="userSpaceOnUse">
<stop stop-color="#FAC2A3"/>
<stop offset="1" stop-color="#8A3B10"/>
</linearGradient>
</defs>
</svg>
