<svg width="90" height="88" viewBox="0 0 90 88" fill="none" xmlns="http://www.w3.org/2000/svg">
<path d="M38.3524 38.0967C36.2585 38.0967 34.6055 39.93 34.6055 42.1667C34.6055 44.4034 36.2953 46.2367 38.3524 46.2367C40.4463 46.2367 42.0993 44.4034 42.0993 42.1667C42.1361 39.93 40.4463 38.0967 38.3524 38.0967ZM51.7606 38.0967C49.6667 38.0967 48.0136 39.93 48.0136 42.1667C48.0136 44.4034 49.7034 46.2367 51.7606 46.2367C53.8544 46.2367 55.5075 44.4034 55.5075 42.1667C55.5075 39.93 53.8544 38.0967 51.7606 38.0967Z" fill="#7289DA"/>
<path d="M69.6106 7.33337H20.3861C16.2351 7.33337 12.8555 10.7067 12.8555 14.8867V64.46C12.8555 68.64 16.2351 72.0134 20.3861 72.0134H62.0432L60.0963 65.23L64.7983 69.5934L69.2432 73.7L77.1412 80.6667V14.8867C77.1412 10.7067 73.7616 7.33337 69.6106 7.33337ZM55.431 55.22C55.431 55.22 54.1085 53.6434 53.0065 52.25C57.8187 50.8934 59.6555 47.8867 59.6555 47.8867C58.1493 48.8767 56.7167 49.5734 55.431 50.05C53.5942 50.82 51.831 51.3334 50.1044 51.6267C46.5779 52.2867 43.3453 52.1034 40.5902 51.59C38.4963 51.1867 36.6963 50.6 35.1902 50.0134C34.3453 49.6834 33.4269 49.28 32.5085 48.7667C32.3983 48.6934 32.2881 48.6567 32.1779 48.5834C32.1044 48.5467 32.0677 48.51 32.031 48.4734C31.3697 48.1067 31.0024 47.85 31.0024 47.85C31.0024 47.85 32.7657 50.7834 37.431 52.1767C36.3289 53.57 34.9697 55.22 34.9697 55.22C26.8514 54.9634 23.7657 49.6467 23.7657 49.6467C23.7657 37.84 29.0555 28.27 29.0555 28.27C34.3453 24.31 39.3779 24.42 39.3779 24.42L39.7453 24.86C33.133 26.7667 30.084 29.6634 30.084 29.6634C30.084 29.6634 30.8922 29.2234 32.2514 28.6C36.182 26.8767 39.3044 26.4 40.5902 26.29C40.8106 26.2534 40.9942 26.2167 41.2146 26.2167C43.4555 25.9234 45.9902 25.85 48.6351 26.1434C52.1248 26.5467 55.8718 27.5734 59.6922 29.6634C59.6922 29.6634 56.7902 26.9134 50.5453 25.0067L51.0595 24.42C51.0595 24.42 56.0922 24.31 61.382 28.27C61.382 28.27 66.6718 37.84 66.6718 49.6467C66.6718 49.6467 63.5493 54.9634 55.431 55.22Z" fill="#7289DA"/>
</svg>
