<svg xmlns="http://www.w3.org/2000/svg" xmlns:xlink="http://www.w3.org/1999/xlink" width="17px" height="34px">
                        <path fill-rule="evenodd" fill="rgb(45, 49, 53)" d="M17.000,8.225 L-0.000,-0.001 L-0.000,33.999 L17.000,25.774 L17.000,8.225 Z"/>
                        <path fill-rule="evenodd" fill="rgb(255, 255, 255)" d="M10.838,16.609 L6.317,12.159 C6.212,12.056 6.072,11.999 5.924,11.999 C5.775,11.999 5.635,12.056 5.530,12.159 L5.198,12.487 C4.981,12.700 4.981,13.047 5.198,13.260 L8.994,16.997 L5.193,20.738 C5.089,20.841 5.031,20.978 5.031,21.125 C5.031,21.272 5.089,21.409 5.193,21.512 L5.526,21.839 C5.631,21.943 5.771,21.999 5.919,21.999 C6.068,21.999 6.208,21.943 6.312,21.839 L10.838,17.386 C10.943,17.282 11.000,17.144 11.000,16.998 C11.000,16.850 10.943,16.712 10.838,16.609 Z"/>
                    </svg>