<svg width="17" height="17" viewBox="0 0 17 17" fill="none" xmlns="http://www.w3.org/2000/svg">
<path d="M11.7214 6.28571C11.7214 7.78698 11.1139 9.14474 10.1293 10.1293C9.14474 11.1139 7.78698 11.7214 6.28571 11.7214C3.28365 11.7214 0.85 9.28778 0.85 6.28571C0.85 3.28365 3.28365 0.85 6.28571 0.85C9.28778 0.85 11.7214 3.28365 11.7214 6.28571Z" stroke="#718088" stroke-width="1.7" stroke-linecap="round" stroke-linejoin="round"/>
<path d="M14.8289 16.0296C15.1609 16.3615 15.6991 16.3615 16.031 16.0296C16.363 15.6977 16.363 15.1595 16.031 14.8275L14.8289 16.0296ZM9.68607 10.8867L14.8289 16.0296L16.031 14.8275L10.8882 9.68466L9.68607 10.8867Z" fill="#718088"/>
</svg>
