<svg xmlns="http://www.w3.org/2000/svg" viewBox="0 0 449.14 511.21"><defs><style>.cls-1{fill:#fff;}</style></defs><title>тт</title><g id="Слой_2" data-name="Слой 2"><g id="Capa_1" data-name="Capa 1"><path class="cls-1" d="M448.9,128a128.8,128.8,0,0,1-77.83-26,129.1,129.1,0,0,1-49-77.83A129.78,129.78,0,0,1,319.62,0H236.15V228.08L236.05,353a75.67,75.67,0,1,1-51.9-71.69V196.57a164.25,164.25,0,0,0-24.07-1.78A160.06,160.06,0,0,0,39.81,248.58a156.85,156.85,0,0,0,7.08,216.29A162.84,162.84,0,0,0,62,478a160.07,160.07,0,0,0,98.11,33.17,164.25,164.25,0,0,0,24.07-1.77,159.53,159.53,0,0,0,89.12-44.57,156.27,156.27,0,0,0,46.88-111.21l-.43-186.56a210.86,210.86,0,0,0,46.88,27.34,211,211,0,0,0,82.54,16.64V128s-.22,0-.24,0Z"/></g></g></svg>