<svg xmlns="http://www.w3.org/2000/svg" width="14.281" height="10.53" viewBox="0 0 14.281 10.53">
  <defs>
    <style>
      .cls-1 {
        fill: #8298ac;
        fill-rule: evenodd;
      }
    </style>
  </defs>
  <path id="Иконка" class="cls-1" d="M154,1253h6a4,4,0,0,1,4,4v2a4,4,0,0,1-4,4h-6a4,4,0,0,1-4-4v-2A4,4,0,0,1,154,1253Zm0,4a1,1,0,1,1-1,1A1,1,0,0,1,154,1257Zm3,0a1,1,0,1,1-1,1A1,1,0,0,1,157,1257Zm3,0a1,1,0,1,1-1,1A1,1,0,0,1,160,1257Zm4.266,6.53-4.151-1.11,3.038-3.04Z" transform="translate(-150 -1253)"/>
</svg>
