<svg xmlns="http://www.w3.org/2000/svg" width="14" height="14" viewBox="0 0 14 14">
  <defs>
    <style>
      .cls-1 {
        fill: #9d9fa0;
        fill-rule: evenodd;
      }
    </style>
  </defs>
  <path id="Фигура_572" data-name="Фигура 572" class="cls-1" d="M293.3,2158.65a8.928,8.928,0,0,1-8.85-8.93,0.724,0.724,0,0,0-1.448,0h0a10.368,10.368,0,0,0,10.3,10.38l0.964-.72Zm-0.45-2.75,3.862,2.9a0.72,0.72,0,0,1,.145,1.01,0.61,0.61,0,0,1-.145.15l-3.862,2.89a0.721,0.721,0,1,1-.869-1.15h0l3.09-2.32-3.09-2.32a0.724,0.724,0,0,1,.868-1.16h0Z" transform="translate(-283 -2149)"/>
</svg>
