<svg xmlns="http://www.w3.org/2000/svg" width="19" height="18" viewBox="0 0 19 18">
  <defs>
    <style>
      .cls-1 {
        fill: #9d9fa0;
        fill-rule: evenodd;
      }
    </style>
  </defs>
  <path id="Фигура_1237_копия" data-name="Фигура 1237 копия" class="cls-1" d="M402.9,1568.25h2.482a0.614,0.614,0,0,0,.62-0.61v-11.03a0.613,0.613,0,0,0-.62-0.61H402.9a0.613,0.613,0,0,0-.62.61v11.03A0.614,0.614,0,0,0,402.9,1568.25Zm-14.349,0c0.1,0.02,4.777,0,4.777,0l-0.653,1.76c-0.451,1.22-.159,3.08,1.092,3.74a2.158,2.158,0,0,0,1.435.2,1,1,0,0,0,.632-0.46,2.575,2.575,0,0,0,.2-0.87,3.717,3.717,0,0,1,1.052-1.99c0.963-.93,3.954-3.6,3.954-3.6v-9.81H390.7A10.484,10.484,0,0,0,388.549,1568.25Z" transform="translate(-387 -1556)"/>
</svg>
