<svg xmlns="http://www.w3.org/2000/svg" width="20" height="20" viewBox="0 0 20 20">
  <defs>
    <style>
      .cls-1 {
        fill: #fff;
        fill-rule: evenodd;
      }
    </style>
  </defs>
  <path id="Фигура_1239" data-name="Фигура 1239" class="cls-1" d="M1369.29,361h-18.58a0.714,0.714,0,0,0-.71.714v3.572a0.718,0.718,0,0,0,.24.53l6.9,6.216v8.253a0.718,0.718,0,0,0,1.04.639l4.28-2.142a0.724,0.724,0,0,0,.4-0.64v-6.11l6.9-6.214a0.724,0.724,0,0,0,.24-0.532v-3.572A0.714,0.714,0,0,0,1369.29,361Zm-0.72,3.968-6.9,6.214a0.687,0.687,0,0,0-.24.532V377.7l-2.86,1.428v-7.415a0.712,0.712,0,0,0-.23-0.531l-6.91-6.215v-2.54h17.14v2.54Z" transform="translate(-1350 -361)"/>
</svg>
