<svg xmlns="http://www.w3.org/2000/svg" width="19" height="18" viewBox="0 0 19 18">
  <defs>
    <style>
      .cls-1 {
        fill: #9d9fa0;
        fill-rule: evenodd;
      }
    </style>
  </defs>
  <path id="Фигура_1237" data-name="Фигура 1237" class="cls-1" d="M363.1,1561.75H360.62a0.614,0.614,0,0,0-.62.61v11.03a0.613,0.613,0,0,0,.62.61H363.1a0.614,0.614,0,0,0,.621-0.61v-11.03A0.615,0.615,0,0,0,363.1,1561.75Zm14.35,0c-0.1-.02-4.777,0-4.777,0l0.653-1.76c0.451-1.22.159-3.08-1.092-3.74a2.158,2.158,0,0,0-1.435-.2,1,1,0,0,0-.632.46,2.575,2.575,0,0,0-.2.87,3.724,3.724,0,0,1-1.052,1.99c-0.963.93-3.955,3.6-3.955,3.6v9.8H375.3A10.474,10.474,0,0,0,377.451,1561.75Z" transform="translate(-360 -1556)"/>
</svg>
