<svg xmlns="http://www.w3.org/2000/svg" width="13" height="9" viewBox="0 0 13 9">
  <defs>
    <style>
      .cls-1 {
        fill: #8298ac;
        fill-rule: evenodd;
      }
    </style>
  </defs>
  <path id="Иконка" class="cls-1" d="M267.728,1004.41a1.615,1.615,0,0,0-1.149-1.14,47.906,47.906,0,0,0-10.158,0,1.615,1.615,0,0,0-1.149,1.14,17.8,17.8,0,0,0,0,6.2,1.606,1.606,0,0,0,1.149,1.12,47.906,47.906,0,0,0,10.158,0,1.606,1.606,0,0,0,1.149-1.12A17.8,17.8,0,0,0,267.728,1004.41Zm-7.558,5v-3.8l3.4,1.9-3.4,1.9h0Z" transform="translate(-255 -1003)"/>
</svg>
