<?xml version="1.0" encoding="utf-8"?>
<!-- Generator: Adobe Illustrator 21.0.0, SVG Export Plug-In . SVG Version: 6.00 Build 0)  -->
<svg version="1.1"
	 id="Layer_1" inkscape:version="0.91 r13725" sodipodi:docname="cloudflare-icon.svg" xmlns:cc="http://creativecommons.org/ns#" xmlns:dc="http://purl.org/dc/elements/1.1/" xmlns:inkscape="http://www.inkscape.org/namespaces/inkscape" xmlns:rdf="http://www.w3.org/1999/02/22-rdf-syntax-ns#" xmlns:sodipodi="http://sodipodi.sourceforge.net/DTD/sodipodi-0.dtd" xmlns:svg="http://www.w3.org/2000/svg"
	 xmlns="http://www.w3.org/2000/svg" xmlns:xlink="http://www.w3.org/1999/xlink" x="0px" y="0px" viewBox="0 0 64 64"
	 style="enable-background:new 0 0 64 64;" xml:space="preserve">
<style type="text/css">
	.st0{fill:#FFFFFF;}
	.st1{fill:#C5D0DE;}
</style>
<g id="g3559" transform="matrix(0.09378664,0,0,0.09378483,-41.2755,1.2231625)">
	<polygon id="polygon3561" class="st0" points="614.1,477.2 1065.7,477.2 1065.7,352.2 979.9,303 965.1,296.6 614.1,299 	"/>
	<path id="path3563" inkscape:connector-curvature="0" class="st1" d="M909.5,460.8c4.2-14.4,2.6-27.6-4.4-37.4
		c-6.4-9-17.2-14.2-30.2-14.8l-246.2-3.2c-1.6,0-3-0.8-3.8-2c-0.8-1.2-1-2.8-0.6-4.4c0.8-2.4,3.2-4.2,5.8-4.4l248.4-3.2
		c29.4-1.4,61.4-25.2,72.6-54.4l14.2-37c0.6-1.6,0.8-3.2,0.4-4.8c-16-72.4-80.6-126.4-157.8-126.4c-71.2,0-131.6,46-153.2,109.8
		c-14-10.4-31.8-16-51-14.2c-34.2,3.4-61.6,30.8-65,65c-0.8,8.8-0.2,17.4,1.8,25.4c-55.8,1.6-100.4,47.2-100.4,103.4
		c0,5,0.4,10,1,15c0.4,2.4,2.4,4.2,4.8,4.2h454.4c2.6,0,5-1.8,5.8-4.4C906.1,473,909.5,460.8,909.5,460.8z"/>
	<path id="path3565" inkscape:connector-curvature="0" class="st1" d="M987.9,302.6c-2.2,0-4.6,0-6.8,0.2c-1.6,0-3,1.2-3.6,2.8
		l-9.6,33.4c-4.2,14.4-2.6,27.6,4.4,37.4c6.4,9,17.2,14.2,30.2,14.8l52.4,3.2c1.6,0,3,0.8,3.8,2s1,3,0.6,4.4
		c-0.8,2.4-3.2,4.2-5.8,4.4l-54.6,3.2c-29.6,1.4-61.4,25.2-72.6,54.4l-4,10.2c-0.8,2,0.6,4,2.8,4h187.6c2.2,0,4.2-1.4,4.8-3.6
		c3.2-11.6,5-23.8,5-36.4C1122.5,363,1062.1,302.6,987.9,302.6"/>
</g>
</svg>
