<?xml version="1.0" encoding="utf-8"?>
<!-- Generator: Adobe Illustrator 21.0.0, SVG Export Plug-In . SVG Version: 6.00 Build 0)  -->
<svg version="1.1" id="Layer_1" xmlns="http://www.w3.org/2000/svg" xmlns:xlink="http://www.w3.org/1999/xlink" x="0px" y="0px"
	 viewBox="0 0 16 16" style="enable-background:new 0 0 16 16;" xml:space="preserve">
<style type="text/css">
	.st0{filter:url(#Adobe_OpacityMaskFilter);}
	.st1{fill:#FFFFFF;}
	.st2{mask:url(#mask-2);}
	.st3{fill:#39B54A;}
	.st4{filter:url(#Adobe_OpacityMaskFilter_1_);}
	.st5{mask:url(#mask-4);}
	.st6{fill:#F1F4F8;}
</style>
<g id="API">
	<g id="Settings-Namechimp-Add_1-price" transform="translate(-835.000000, -596.000000)">
		<g id="Group-3" transform="translate(339.000000, 573.000000)">
			<g id="Icon_x2F_dollar" transform="translate(496.000000, 23.000000)">
				<g id="Icon_x2F_Circle-_x28_for-Toggle_x29_">
					<g id="Info-Icon">
					</g>
					<defs>
						<filter id="Adobe_OpacityMaskFilter" filterUnits="userSpaceOnUse" x="0" y="0" width="16" height="16">
							<feColorMatrix  type="matrix" values="1 0 0 0 0  0 1 0 0 0  0 0 1 0 0  0 0 0 1 0"/>
						</filter>
					</defs>
					<mask maskUnits="userSpaceOnUse" x="0" y="0" width="16" height="16" id="mask-2">
						<g class="st0">
							<path id="path-1" class="st1" d="M8,0C3.6,0,0,3.6,0,8s3.6,8,8,8c4.4,0,8-3.6,8-8S12.4,0,8,0L8,0z"/>
						</g>
					</mask>
					<g id="UI_x2F_Color_x2F_Flat_x2F_Green" class="st2">
						<rect id="Base" class="st3" width="16" height="16"/>
					</g>
				</g>
				<g id="awesome_x2F_dollar-sign" transform="translate(1.000000, 1.000000)">
					<defs>
						<filter id="Adobe_OpacityMaskFilter_1_" filterUnits="userSpaceOnUse" x="0" y="0" width="14" height="14">
							<feColorMatrix  type="matrix" values="1 0 0 0 0  0 1 0 0 0  0 0 1 0 0  0 0 0 1 0"/>
						</filter>
					</defs>
					<mask maskUnits="userSpaceOnUse" x="0" y="0" width="14" height="14" id="mask-4">
						<g class="st4">
							<path id="path-3" class="st1" d="M6.2,5.4c0-0.4,0.4-0.7,1-0.7c0.5,0,1,0.2,1.4,0.5c0.1,0.1,0.3,0,0.3-0.1l0.4-0.8
								c0-0.1,0-0.2,0-0.3C8.8,3.7,8.2,3.5,7.6,3.4V2.6c0-0.1-0.1-0.2-0.2-0.2H6.6c-0.1,0-0.2,0.1-0.2,0.2v0.9c-1.1,0.2-1.8,1-1.8,2
								c0,2.3,3.4,2,3.4,3.1c0,0.4-0.3,0.8-1,0.8C6.5,9.3,5.9,9,5.5,8.6c-0.1-0.1-0.2-0.1-0.3,0L4.6,9.4c-0.1,0.1-0.1,0.2,0,0.3
								c0.4,0.4,1.1,0.8,1.8,0.9v0.9c0,0.1,0.1,0.2,0.2,0.2h0.7c0.1,0,0.2-0.1,0.2-0.2v-0.9c1.2-0.2,1.9-1.1,1.9-2.1
								C9.5,6.3,6.2,6.6,6.2,5.4z"/>
						</g>
					</mask>
					<g id="UI_x2F_Color_x2F_Flat_x2F_Light-Blue" class="st5">
						<rect id="Base_1_" class="st6" width="14" height="14"/>
					</g>
				</g>
			</g>
		</g>
	</g>
</g>
</svg>
