<?xml version="1.0" encoding="utf-8"?>
<!-- Generator: Adobe Illustrator 21.0.0, SVG Export Plug-In . SVG Version: 6.00 Build 0)  -->
<svg version="1.1" id="Layer_1" xmlns="http://www.w3.org/2000/svg" xmlns:xlink="http://www.w3.org/1999/xlink" x="0px" y="0px"
	 viewBox="0 0 16 16" style="enable-background:new 0 0 16 16;" xml:space="preserve">
<style type="text/css">
	.st0{filter:url(#Adobe_OpacityMaskFilter);}
	.st1{fill:#FFFFFF;}
	.st2{mask:url(#mask-2);}
	.st3{fill:#F85359;}
</style>
<g id="Icon_x2F_Info">
	<g id="Info-Icon">
	</g>
	<defs>
		<filter id="Adobe_OpacityMaskFilter" filterUnits="userSpaceOnUse" x="0" y="0" width="16" height="16">
			<feColorMatrix  type="matrix" values="1 0 0 0 0  0 1 0 0 0  0 0 1 0 0  0 0 0 1 0"/>
		</filter>
	</defs>
	<mask maskUnits="userSpaceOnUse" x="0" y="0" width="16" height="16" id="mask-2">
		<g class="st0">
			<path id="path-1" class="st1" d="M9.6,12H6.4C6.2,12,6,11.8,6,11.6c0-0.2,0.2-0.4,0.4-0.4L7,11V8L6.4,7.9C6.2,7.9,6,7.7,6,7.4
				C6,7.2,6.2,7,6.4,7h2.5C9,7,9,7,9,6.9c0,0,0,0,0,0.1v4l0.6,0.1c0.2,0,0.4,0.2,0.4,0.4C10,11.8,9.8,12,9.6,12L9.6,12z M7,4h1
				c0,0,0,0,0,0s0,0,0,0h1v0.9C9,5,9,5,9,5c0,0,0,0,0,0.1V6H8c0,0,0,0,0,0c0,0,0,0,0,0H7V5.1C7,5,7,5,7,5c0,0,0,0,0-0.1V4z M8,0
				C3.6,0,0,3.6,0,8s3.6,8,8,8c4.4,0,8-3.6,8-8S12.4,0,8,0L8,0z"/>
		</g>
	</mask>
	<g id="UI_x2F_Color_x2F_Flat_x2F_Red" class="st2">
		<rect id="Base" class="st3" width="16" height="16"/>
	</g>
</g>
</svg>
