<?xml version="1.0" encoding="UTF-8"?>
<svg width="16px" height="16px" viewBox="0 0 16 16" version="1.1" xmlns="http://www.w3.org/2000/svg" xmlns:xlink="http://www.w3.org/1999/xlink">
    <!-- Generator: Sketch 51.1 (57501) - http://www.bohemiancoding.com/sketch -->
    <title>awesome/shield-alt</title>
    <desc>Created with Sketch.</desc>
    <defs>
        <path d="M15.585,8.16499998 C14.6080625,7.25024997 13.34025,6.74881247 11.99525,6.74999997 C9.57468748,6.75212497 7.48499997,8.41181248 6.90803122,10.7140625 C6.86603122,10.8816562 6.71671872,11 6.54393747,11 L4.7532187,11 C4.5189062,11 4.3409062,10.7872812 4.38424995,10.557 C5.06040621,6.96637497 8.21290623,4.24999995 12,4.24999995 C14.0765,4.24999995 15.9622188,5.06674996 17.3535938,6.39640621 L18.4696875,5.28031246 C18.9421563,4.80784371 19.75,5.14246871 19.75,5.81065621 L19.75,9.99999999 C19.75,10.4142187 19.4142188,10.75 19,10.75 L14.8106563,10.75 C14.1424688,10.75 13.8078438,9.94215624 14.2803125,9.46965623 L15.585,8.16499998 Z M4.99999996,13.25 L9.18934373,13.25 C9.85753124,13.25 10.1921562,14.0578438 9.71968749,14.5303438 L8.41499998,15.8350313 C9.39193748,16.7498125 10.6598437,17.25125 12.004875,17.2500313 C14.4241875,17.2478438 16.5147188,15.5892813 17.0919688,13.286 C17.1339688,13.1184063 17.2832813,13.0000625 17.4560625,13.0000625 L19.2468125,13.0000625 C19.481125,13.0000625 19.659125,13.2127813 19.6157813,13.4430625 C18.9395938,17.033625 15.7870938,19.75 12,19.75 C9.92349999,19.75 8.03778123,18.93325 6.64640622,17.6035938 L5.53031246,18.7196875 C5.05784371,19.1921563 4.24999995,18.8575313 4.24999995,18.1893438 L4.24999995,14 C4.24999995,13.5857813 4.5857812,13.25 4.99999996,13.25 Z" id="path-1"></path>
    </defs>
    <g id="API" stroke="none" stroke-width="1" fill="none" fill-rule="evenodd">
        <g id="Settings-Namechimp-Add_1_new_dn" transform="translate(-772.000000, -533.000000)">
            <g id="Dropdown" transform="translate(338.000000, 448.000000)">
                <g id="awesome/sync-alt" transform="translate(430.000000, 81.000000)">
                    <mask id="mask-2" fill="white">
                        <use xlink:href="#path-1"></use>
                    </mask>
                    <g fill-rule="nonzero"></g>
                    <g id="UI/Color/Flat/Green" mask="url(#mask-2)" fill="#39B54A" fill-rule="evenodd">
                        <rect id="Base" x="0" y="0" width="24" height="24"></rect>
                    </g>
                </g>
            </g>
        </g>
    </g>
</svg>