<svg id="Layer_1" data-name="Layer 1" xmlns="http://www.w3.org/2000/svg" xmlns:xlink="http://www.w3.org/1999/xlink" viewBox="0 0 16 16"><defs><style>.cls-1{fill:#fff;}.cls-2{mask:url(#mask);}.cls-3{fill:#c5d0de;}</style><mask id="mask" x="-4" y="-4" width="24" height="24" maskUnits="userSpaceOnUse"><g id="mask-2"><path id="path-1" class="cls-1" d="M11.59,4.16A5.25,5.25,0,0,0,2.91,6.71.38.38,0,0,1,2.54,7H.75a.37.37,0,0,1-.37-.44,7.75,7.75,0,0,1,13-4.16l1.12-1.12a.75.75,0,0,1,1.28.53V6a.75.75,0,0,1-.75.75H10.81a.75.75,0,0,1-.53-1.28ZM1,9.25H5.19a.75.75,0,0,1,.53,1.28l-1.3,1.3a5.25,5.25,0,0,0,8.68-2.55A.38.38,0,0,1,13.46,9h1.79a.37.37,0,0,1,.37.44,7.75,7.75,0,0,1-13,4.16L1.53,14.72a.75.75,0,0,1-1.28-.53V10A.75.75,0,0,1,1,9.25Z"/></g></mask></defs><title>renew_1</title><g id="API"><g id="Settings-Namechimp-Add_1_new_dn" data-name="Settings-Namechimp-Add 1 new dn"><g id="Dropdown"><g id="awesome_sync-alt" data-name="awesome/sync-alt"><g class="cls-2"><g id="UI_Color_Flat_Icon-Color" data-name="UI/Color/Flat/Icon-Color"><rect id="Base" class="cls-3" x="-4" y="-4" width="24" height="24"/></g></g></g></g></g></g></svg>