<svg id="Слой_1" data-name="Слой 1" xmlns="http://www.w3.org/2000/svg" viewBox="0 0 549.94 164.2"><defs><style>.cls-1{fill:#fff;}</style></defs><title>logo</title><path d="M178.15,90a10.11,10.11,0,0,0,1.92,5.16q2.61,3.12,9,3.11a19.18,19.18,0,0,0,6.17-.82c3-1,4.51-3,4.51-5.84a4.3,4.3,0,0,0-2.21-3.86,23.75,23.75,0,0,0-7-2.36l-5.46-1.2q-8-1.77-11.05-3.86-5.08-3.5-5.09-10.91a14.48,14.48,0,0,1,5-11.24q5-4.48,14.64-4.48a22.46,22.46,0,0,1,13.75,4.22q5.7,4.23,6,12.26H198.14a7.19,7.19,0,0,0-4.06-6.46,13.81,13.81,0,0,0-6.27-1.27,12,12,0,0,0-6.66,1.64,5.2,5.2,0,0,0-2.49,4.58,4.34,4.34,0,0,0,2.45,4,31,31,0,0,0,6.7,2.08l8.84,2.09a22.56,22.56,0,0,1,8.71,3.65q4.5,3.55,4.51,10.29a14.46,14.46,0,0,1-5.34,11.47q-5.34,4.56-15.08,4.56-9.94,0-15.65-4.49T168.1,90Z"/><path d="M251,64.1H224.35V74.8h24.47v8.75H224.35v13h27.89v9H214.06V55.18H251Z"/><path d="M289.23,56.48A12.49,12.49,0,0,1,293.94,60a15.58,15.58,0,0,1,2.53,4.24,14,14,0,0,1,.94,5.3,15.22,15.22,0,0,1-1.81,7.06,10.16,10.16,0,0,1-6,4.9,9.33,9.33,0,0,1,4.94,4Q296,88.06,296,93.36v3.38a26.24,26.24,0,0,0,.27,4.69,4.22,4.22,0,0,0,2,2.87v1.26H286.61q-.48-1.66-.69-2.7a24.84,24.84,0,0,1-.44-4.34l-.07-4.68c0-3.21-.6-5.36-1.66-6.43s-3.07-1.6-6-1.6H267.47v19.75H257.18V55.18h24.1A22,22,0,0,1,289.23,56.48Zm-21.76,7.45V77.47H278.8a12.16,12.16,0,0,0,5.06-.82q3-1.44,3-5.68c0-3-1-5.1-2.89-6.15a10.48,10.48,0,0,0-4.87-.89Z"/><path d="M337.81,83.76q-4.43,3.69-12.63,3.69H314.69v18.11H304.23V55.18h21.63q7.49,0,11.93,3.9t4.45,12.06Q342.24,80.07,337.81,83.76Zm-8-18.15a8.45,8.45,0,0,0-5.6-1.68h-9.49V78.77h9.49a8,8,0,0,0,5.6-1.82c1.33-1.2,2-3.12,2-5.74S331.11,66.72,329.78,65.61Z"/><path d="M337.2,95.34h10.36v10.22H337.2Z"/><path d="M368.73,54.72l2,.15V62.8c-.54-.06-1.46-.12-2.75-.15a3.19,3.19,0,0,0-2.66.85,3.14,3.14,0,0,0-.74,2v3.15H371v6.87h-6.39v30H355v-30h-5.47V68.65h5.33V66.26q0-6,2-8.24,2.12-3.35,10.22-3.35C367.67,54.67,368.23,54.69,368.73,54.72Z"/><path d="M387.89,82.9a15.66,15.66,0,0,0,3.89-.85,2.94,2.94,0,0,0,2.1-2.77,3.27,3.27,0,0,0-1.61-3.16,10.24,10.24,0,0,0-4.73-.87q-3.51,0-5,1.7a7.13,7.13,0,0,0-1.38,3.42h-9.4a14.24,14.24,0,0,1,2.74-8q3.88-4.92,13.32-4.92a23.85,23.85,0,0,1,10.92,2.42q4.77,2.43,4.77,9.17V96.09c0,1.19,0,2.63.07,4.31a5.44,5.44,0,0,0,.58,2.6,3.53,3.53,0,0,0,1.43,1.13v1.43H395a11,11,0,0,1-.62-2.12q-.17-1-.27-2.25a19.78,19.78,0,0,1-4.68,3.72,14.07,14.07,0,0,1-7.15,1.81,12.35,12.35,0,0,1-8.4-2.88q-3.32-2.9-3.32-8.19,0-6.87,5.34-10a24,24,0,0,1,8.61-2.39Zm5.95,4.55a10.39,10.39,0,0,1-1.89.94,15.22,15.22,0,0,1-2.61.66l-2.22.41a14.57,14.57,0,0,0-4.48,1.34,4.45,4.45,0,0,0-2.3,4.13,4.31,4.31,0,0,0,1.41,3.61,5.32,5.32,0,0,0,3.42,1.11,10.22,10.22,0,0,0,5.88-1.85q2.68-1.85,2.79-6.73Z"/><path d="M429.26,67.44l.83,0v10c-.61-.07-1.16-.12-1.64-.14l-1.16,0q-5.88,0-7.89,3.82c-.76,1.44-1.13,3.65-1.13,6.64v17.8h-9.81V68.31h9.29V74.8a20.66,20.66,0,0,1,3.94-5.09,10.66,10.66,0,0,1,7.1-2.29A3.25,3.25,0,0,1,429.26,67.44Z"/><path d="M478.79,68.44a10.9,10.9,0,0,1,6.46,8.14,34,34,0,0,1,.34,5.5l-.07,23.48h-10V81.84a7.84,7.84,0,0,0-.68-3.48c-.87-1.74-2.47-2.6-4.79-2.6a5.58,5.58,0,0,0-5.57,3.35,10.4,10.4,0,0,0-.79,4.27v22.18H453.9V83.38a12.58,12.58,0,0,0-.68-4.82q-1.23-2.7-4.82-2.7-4.17,0-5.61,2.7a10.48,10.48,0,0,0-.78,4.58v22.42h-9.88V68.38h9.47v5.43A15.52,15.52,0,0,1,445,69.67a11.73,11.73,0,0,1,7.34-2.18,11.6,11.6,0,0,1,6.91,1.88,10.94,10.94,0,0,1,3.21,4.47A12.5,12.5,0,0,1,467.23,69a14.58,14.58,0,0,1,6.7-1.53A13.17,13.17,0,0,1,478.79,68.44Z"/><rect x="33.82" y="21.43" width="118" height="118" rx="22.97"/><path class="cls-1" d="M62.08,90.16A10.3,10.3,0,0,0,64,95.32q2.61,3.11,9,3.11a19.58,19.58,0,0,0,6.18-.82q4.5-1.58,4.5-5.85a4.31,4.31,0,0,0-2.21-3.86,24.05,24.05,0,0,0-7-2.36L69,84.35q-8-1.78-11-3.87-5.1-3.48-5.1-10.9a14.47,14.47,0,0,1,5-11.24q5-4.48,14.64-4.48a22.44,22.44,0,0,1,13.75,4.22q5.7,4.22,6,12.25H82.08A7.23,7.23,0,0,0,78,63.87a14,14,0,0,0-6.27-1.26,11.9,11.9,0,0,0-6.66,1.64,5.19,5.19,0,0,0-2.49,4.58,4.32,4.32,0,0,0,2.46,4A30.64,30.64,0,0,0,71.74,75L80.58,77q5.82,1.36,8.71,3.66Q93.81,84.25,93.8,91a14.44,14.44,0,0,1-5.34,11.46Q83.12,107,73.38,107q-9.94,0-15.65-4.5T52,90.16Z"/><path class="cls-1" d="M97.68,55.4h35.93v8.85H108.14V75.84h22.32v8.75H108.14v21.12H97.68Z"/></svg>