<svg id="Layer_1" data-name="Layer 1" xmlns="http://www.w3.org/2000/svg" xmlns:xlink="http://www.w3.org/1999/xlink" viewBox="0 0 16 16"><defs><style>.cls-1{fill:#fff;}.cls-2{mask:url(#mask);}.cls-3{fill:#c5d0de;}</style><mask id="mask" x="-4" y="-4" width="24" height="24" maskUnits="userSpaceOnUse"><g id="mask-2"><path id="path-1" class="cls-1" d="M15.49,4c0,6.9-4.24,10.75-6.91,11.86a1.5,1.5,0,0,1-1.15,0C4.09,14.46.51,10.18.51,4a1.5,1.5,0,0,1,.92-1.38l6-2.5a1.5,1.5,0,0,1,1.15,0l6,2.5A1.5,1.5,0,0,1,15.49,4ZM8,13.92H8c2.92-1.46,5.38-4.88,5.48-9.6L8,2Z"/></g></mask></defs><title>shield_1</title><g id="API"><g id="Settings-Namechimp-Add_1_new_dn" data-name="Settings-Namechimp-Add 1 new dn"><g id="Dropdown"><g id="awesome_shield-alt" data-name="awesome/shield-alt"><g class="cls-2"><g id="UI_Color_Flat_Icon-Color" data-name="UI/Color/Flat/Icon-Color"><rect id="Base" class="cls-3" x="-4" y="-4" width="24" height="24"/></g></g></g></g></g></g></svg>