<svg xmlns="http://www.w3.org/2000/svg" width="14" height="14" viewBox="0 0 14 14">
  <defs>
    <style>
      .cls-1 {
        fill: #9d9fa0;
        fill-rule: evenodd;
      }
    </style>
  </defs>
  <path id="Иконка" class="cls-1" d="M947.494,2189.24l-1.952-1.47v-2.98a0.542,0.542,0,0,0-1.084,0v3.25a0.565,0.565,0,0,0,.217.44l2.168,1.62a0.5,0.5,0,0,0,.325.11,0.523,0.523,0,0,0,.435-0.22A0.53,0.53,0,0,0,947.494,2189.24ZM945,2181a7,7,0,1,0,7,7A7.008,7.008,0,0,0,945,2181Zm0,12.91a5.915,5.915,0,1,1,5.916-5.91A5.92,5.92,0,0,1,945,2193.91Z" transform="translate(-938 -2181)"/>
</svg>
