<?xml version="1.0" encoding="UTF-8"?>
<svg width="24px" height="24px" viewBox="0 0 24 24" version="1.1" xmlns="http://www.w3.org/2000/svg" xmlns:xlink="http://www.w3.org/1999/xlink">
    <!-- Generator: Sketch 63 (92445) - https://sketch.com -->
    <title>awesome/user-circle</title>
    <desc>Created with Sketch.</desc>
    <defs>
        <path d="M4.24999995,12 C4.24999995,7.71978122 7.71978122,4.24999995 12,4.24999995 C16.2802188,4.24999995 19.75,7.71978122 19.75,12 C19.75,16.2802188 16.2802188,19.75 12,19.75 C7.71978122,19.75 4.24999995,16.2802188 4.24999995,12 Z M6.51421872,15.933375 C7.73928122,17.6389375 9.73978124,18.75 12,18.75 C14.2602188,18.75 16.2607188,17.6389375 17.4857813,15.933375 C17.387625,15.0899375 16.7774375,14.381875 15.9377188,14.1719375 L14.9260313,13.9190313 C14.1114063,14.6184375 13.0850625,15 12,15 C10.9149375,15 9.88859374,14.6184375 9.07393748,13.9190313 L8.06224998,14.1719375 C7.22256247,14.381875 6.61237497,15.0899375 6.51421872,15.933375 Z M8.49999998,10.5 C8.49999998,12.433 10.067,14 12,14 C13.933,14 15.5,12.433 15.5,10.5 C15.5,8.56699998 13.933,6.99999997 12,6.99999997 C10.067,6.99999997 8.49999998,8.56699998 8.49999998,10.5 Z" id="path-1"></path>
    </defs>
    <g id="awesome/user-circle" stroke="none" stroke-width="1" fill="grey" fill-rule="evenodd">
        <mask id="mask-2" fill="white">
            <use xlink:href="#path-1"></use>
        </mask>
        <g fill-rule="nonzero"></g>
        <g id="UI/Color/Flat/Blue" mask="url(#mask-2)" fill="grey">
            <rect id="Base" x="0" y="0" width="24" height="24"></rect>
        </g>
    </g>
</svg>