<svg id="Layer_1" data-name="Layer 1" xmlns="http://www.w3.org/2000/svg" width="46.8" height="31.3" viewBox="0 0 46.8 31.3">
  <defs>
    <style>
      .cls-1 {
        fill: #fff;
      }
    </style>
  </defs>
  <path class="cls-1" d="M40.9,31.3H5.9A5.8,5.8,0,0,1,0,25.4V5.9A5.8,5.8,0,0,1,5.9,0h35a5.8,5.8,0,0,1,5.9,5.9V25.3a5.9,5.9,0,0,1-5.9,6ZM5.9,1.5A4.4,4.4,0,0,0,1.5,5.9V25.3a4.4,4.4,0,0,0,4.4,4.4h35a4.4,4.4,0,0,0,4.4-4.4V5.9a4.4,4.4,0,0,0-4.4-4.4Z" transform="translate(0 0)"/>
  <path class="cls-1" d="M37.6,31.3H5.9a.7.7,0,0,1-.7-.7h0V.7A.7.7,0,0,1,5.9,0H37.6a.7.7,0,0,1,.7.7h0V30.5A.8.8,0,0,1,37.6,31.3Zm-31-1.5H36.8V1.5H6.6Z" transform="translate(0 0)"/>
  <path class="cls-1" d="M41.6,19a.7.7,0,0,1-.7-.7h0V13a.7.7,0,0,1,1.4,0v5.3C42.4,18.7,42,19,41.6,19Z" transform="translate(0 0)"/>
  <path class="cls-1" d="M24,19.1l-.5-.2L14.1,9.5a.7.7,0,0,1,0-1l3.2-3.2a.8.8,0,0,1,1.1,0l9.4,9.4a.8.8,0,0,1,0,1.1l-3.3,3A.5.5,0,0,1,24,19.1ZM15.6,8.9,24,17.3l2.2-2.2L17.8,6.7Z" transform="translate(0 0)"/>
  <path class="cls-1" d="M29.2,21.1h-.3l-5.3-2.1a1.2,1.2,0,0,1-.5-.5.6.6,0,0,1,.2-.7l3.2-3.2a.6.6,0,0,1,.7-.2,1.2,1.2,0,0,1,.5.5l2.1,5.3a.8.8,0,0,1-.2.8C29.6,21.1,29.4,21.1,29.2,21.1ZM25.3,18l2.6,1-1-2.6Z" transform="translate(0 0)"/>
  <path class="cls-1" d="M17.5,12.6l-.5-.2L14.1,9.5a.7.7,0,0,1,0-1l3.2-3.2a.8.8,0,0,1,1.1,0l2.9,2.9a.7.7,0,0,1,0,1l-3.2,3.2ZM15.6,8.9l1.9,1.9,2.2-2.2L17.8,6.7Z" transform="translate(0 0)"/>
  <path class="cls-1" d="M29.2,24.4H18.9a.7.7,0,1,1,0-1.4H29.3a.7.7,0,0,1,.7.7h0a.7.7,0,0,1-.7.7Z" transform="translate(0 0)"/>
</svg>
