<svg id="Layer_1" data-name="Layer 1" xmlns="http://www.w3.org/2000/svg" width="38.5" height="40.8" viewBox="0 0 38.5 40.8">
  <defs>
    <style>
      .cls-1 {
        fill: #fffffd;
      }

      .cls-2 {
        fill: #fff;
      }

      .cls-3 {
        fill: #fffdfe;
      }

      .cls-4 {
        fill: #fcfcfc;
      }
    </style>
  </defs>
  <path class="cls-1" d="M37.8,29.8H.7a.7.7,0,0,1-.7-.7H0V.7A.7.7,0,0,1,.7,0H37.8a.7.7,0,0,1,.7.7h0V29A.8.8,0,0,1,37.8,29.8ZM1.4,28.3H37V1.4H1.4Z" transform="translate(0 0)"/>
  <path class="cls-2" d="M37.8,40.8H.7a.7.7,0,0,1-.7-.7H0v-11a.7.7,0,0,1,.7-.7H37.8a.7.7,0,0,1,.7.7h0v11a.7.7,0,0,1-.7.7ZM1.4,39.3H37V29.8H1.4Z" transform="translate(0 0)"/>
  <path class="cls-2" d="M28.5,33.7H16.2a.7.7,0,0,1,0-1.4H28.4a.7.7,0,0,1,.7.7h0a.6.6,0,0,1-.4.7Z" transform="translate(0 0)"/>
  <path class="cls-3" d="M32.9,36.9H16.2a.7.7,0,1,1,0-1.4H32.9a.7.7,0,0,1,.7.7h0C33.7,36.5,33.4,36.9,32.9,36.9Z" transform="translate(0 0)"/>
  <path class="cls-2" d="M18.7,17.2a6.7,6.7,0,0,1-6.6-6.6,6.6,6.6,0,0,1,13.2,0A6.7,6.7,0,0,1,18.7,17.2Zm0-11.7a5.1,5.1,0,1,0,5.1,5.1A5.1,5.1,0,0,0,18.7,5.5Z" transform="translate(0 0)"/>
  <path class="cls-4" d="M24.7,25h-12a.7.7,0,0,1-.7-.7h0V22.5a6.7,6.7,0,1,1,13.4,0v1.8a.7.7,0,0,1-.7.7ZM13.5,23.5H24v-1a5.2,5.2,0,1,0-10.4,0v1Z" transform="translate(0 0)"/>
  <path class="cls-2" d="M8.7,38H8.4S5,36.1,5,33.9a2.3,2.3,0,0,1,2.1-2.5h.2a2.7,2.7,0,0,1,1.5.5,2.7,2.7,0,0,1,1.5-.5,2.4,2.4,0,0,1,2.3,2.5h0c0,2.1-3.4,4-3.4,4ZM7.2,33c-.6,0-.8.6-.8,1s1.4,1.9,2.3,2.4S11,34.7,11,34s-.2-1-.8-1a1.1,1.1,0,0,0-.9.5.7.7,0,0,1-1,0A2.2,2.2,0,0,0,7.2,33Z" transform="translate(0 0)"/>
</svg>
