<svg id="Layer_1" data-name="Layer 1" xmlns="http://www.w3.org/2000/svg" viewBox="0 0 38.5 40.8"><defs><style>.cls-1{fill:#231f20;}</style></defs><path class="cls-1" d="M43.6,33.7H6.5a.68.68,0,0,1-.7-.7V4.6a.68.68,0,0,1,.7-.7H43.6a.68.68,0,0,1,.7.7V32.9A.77.77,0,0,1,43.6,33.7ZM7.2,32.2H42.8V5.3H7.2Z" transform="translate(-5.8 -3.9)"/><path class="cls-1" d="M43.6,44.7H6.5a.68.68,0,0,1-.7-.7V33a.68.68,0,0,1,.7-.7H43.6a.68.68,0,0,1,.7.7V44A.68.68,0,0,1,43.6,44.7ZM7.2,43.2H42.8V33.7H7.2Z" transform="translate(-5.8 -3.9)"/><path class="cls-1" d="M34.3,37.6H22a.7.7,0,0,1,0-1.4H34.2a.68.68,0,0,1,.7.7A.56.56,0,0,1,34.3,37.6Z" transform="translate(-5.8 -3.9)"/><path class="cls-1" d="M38.7,40.8H22a.7.7,0,1,1,0-1.4H38.7a.68.68,0,0,1,.7.7C39.5,40.4,39.2,40.8,38.7,40.8Z" transform="translate(-5.8 -3.9)"/><path class="cls-1" d="M24.5,21.1a6.6,6.6,0,1,1,6.6-6.6A6.66,6.66,0,0,1,24.5,21.1Zm0-11.7a5.1,5.1,0,1,0,5.1,5.1A5.12,5.12,0,0,0,24.5,9.4Z" transform="translate(-5.8 -3.9)"/><path class="cls-1" d="M30.5,28.9h-12a.68.68,0,0,1-.7-.7V26.4a6.7,6.7,0,0,1,13.4,0v1.8A.68.68,0,0,1,30.5,28.9ZM19.3,27.4H29.8v-1a5.2,5.2,0,0,0-10.4,0v1Z" transform="translate(-5.8 -3.9)"/><path class="cls-1" d="M14.5,41.9a.37.37,0,0,1-.3-.1s-3.4-1.8-3.4-4a2.32,2.32,0,0,1,2.3-2.5,3,3,0,0,1,1.5.5,2.69,2.69,0,0,1,1.5-.5,2.38,2.38,0,0,1,2.3,2.5c0,2.1-3.4,4-3.4,4A1.34,1.34,0,0,1,14.5,41.9Zm-1.5-5c-.6,0-.8.6-.8,1,0,.7,1.4,1.9,2.3,2.4,1-.6,2.3-1.7,2.3-2.4,0-.5-.2-1-.8-1a1.38,1.38,0,0,0-.9.5.73.73,0,0,1-1,0A2.11,2.11,0,0,0,13,36.9Z" transform="translate(-5.8 -3.9)"/></svg>