<svg id="Layer_1" data-name="Layer 1" xmlns="http://www.w3.org/2000/svg" viewBox="0 0 46.8 31.3"><defs><style>.cls-1{fill:#231f20;}.cls-2{fill:#fff;}</style></defs><path class="cls-1" d="M42.4,40.5H7.4a5.91,5.91,0,0,1-5.9-5.9V15.1A5.91,5.91,0,0,1,7.4,9.2h35a5.91,5.91,0,0,1,5.9,5.9V34.5A5.93,5.93,0,0,1,42.4,40.5ZM7.4,10.7A4.44,4.44,0,0,0,3,15.1V34.5a4.44,4.44,0,0,0,4.4,4.4h35a4.44,4.44,0,0,0,4.4-4.4V15.1a4.44,4.44,0,0,0-4.4-4.4Z" transform="translate(-1.5 -9.2)"/><path class="cls-1" d="M39.1,40.5H7.4a.68.68,0,0,1-.7-.7V9.9a.68.68,0,0,1,.7-.7H39.1a.68.68,0,0,1,.7.7V39.7A.77.77,0,0,1,39.1,40.5ZM8.1,39H38.3V10.7H8.1Z" transform="translate(-1.5 -9.2)"/><path class="cls-1" d="M43.1,28.2a.68.68,0,0,1-.7-.7V22.2a.7.7,0,1,1,1.4,0v5.3C43.9,27.9,43.5,28.2,43.1,28.2Z" transform="translate(-1.5 -9.2)"/><rect class="cls-2" x="20.07" y="14.53" width="4.5" height="13.3" transform="translate(-9.94 12.78) rotate(-45)"/><path class="cls-1" d="M25.5,28.3a.76.76,0,0,1-.5-.2l-9.4-9.4a.73.73,0,0,1,0-1l3.2-3.2a.78.78,0,0,1,1.1,0l9.4,9.4a.78.78,0,0,1,0,1.1L26,28A.55.55,0,0,1,25.5,28.3ZM17.1,18.1l8.4,8.4,2.2-2.2-8.4-8.4Z" transform="translate(-1.5 -9.2)"/><polygon class="cls-2" points="24 18.3 29.2 20.4 27.2 15.1 24 18.3"/><path class="cls-1" d="M30.7,30.3a.37.37,0,0,1-.3-.1l-5.3-2.1a1.21,1.21,0,0,1-.5-.5.66.66,0,0,1,.2-.7L28,23.7a.62.62,0,0,1,.7-.2.82.82,0,0,1,.5.5l2.1,5.3a.78.78,0,0,1-.2.8C31.1,30.3,30.9,30.3,30.7,30.3Zm-3.9-3.1,2.6,1-1-2.6Z" transform="translate(-1.5 -9.2)"/><rect class="cls-2" x="16.92" y="15.88" width="4.5" height="4.2" transform="translate(-8.6 9.62) rotate(-45)"/><path class="cls-1" d="M19,21.8a.76.76,0,0,1-.5-.2l-2.9-2.9a.73.73,0,0,1,0-1l3.2-3.2a.78.78,0,0,1,1.1,0l2.9,2.9a.73.73,0,0,1,0,1l-3.2,3.2A1.42,1.42,0,0,1,19,21.8Zm-1.9-3.7L19,20l2.2-2.2-1.9-1.9Z" transform="translate(-1.5 -9.2)"/><path class="cls-1" d="M30.7,33.6H20.4a.7.7,0,0,1,0-1.4H30.8a.68.68,0,0,1,.7.7A.71.71,0,0,1,30.7,33.6Z" transform="translate(-1.5 -9.2)"/></svg>