<svg width="42" height="41" viewBox="0 0 42 41" fill="none" xmlns="http://www.w3.org/2000/svg">
<path d="M37.6255 8.60776C37.1828 8.60691 36.5615 8.56164 36.1232 8.62826C35.4704 8.74101 34.8054 8.5548 34.1474 8.53516C34.1378 8.37799 34.2603 8.09697 34.2542 7.94066C34.1308 7.92528 34.0083 7.91674 33.8893 7.88941C33.7782 7.49905 33.821 7.08735 33.8079 6.68674C33.7449 6.68589 33.618 6.68333 33.555 6.68162C33.5349 7.13774 33.5367 7.59387 33.5314 8.04999C33.3695 7.92101 33.2567 7.67074 33.0213 7.68868L26.5935 7.68783C26.254 7.7237 25.9889 7.49735 25.715 7.33762C25.6888 7.12749 25.6547 6.91908 25.6127 6.71237C25.4202 6.97118 25.4027 7.3026 25.3318 7.60753C24.8208 7.70662 24.3159 7.98593 23.7953 8.03035C23.7498 7.73651 23.7017 7.44353 23.6684 7.14714C23.944 7.0173 24.2538 6.93018 24.4822 6.71835C24.7508 5.9513 24.4402 5.15351 24.2625 4.40355C23.7122 4.01235 23.1023 3.66641 22.4679 3.41699H21.5562C20.9297 3.61687 20.3058 3.94401 19.9497 4.51972C19.3984 5.36449 19.3223 6.44928 19.6688 7.38716C19.6198 7.41962 19.5218 7.48624 19.4728 7.52041C18.876 7.05916 18.0509 7.28722 17.4795 7.67416C16.65 8.28831 16.2073 9.2928 16.0235 10.2836C15.8337 11.1233 15.9185 11.9851 16.02 12.8291C15.677 12.9119 15.3253 12.9281 14.9762 12.9538C14.83 12.9597 14.6454 13.017 14.6297 13.187C14.5247 13.8549 14.6025 14.5417 14.4617 15.2053C14.3707 15.6307 14.312 16.0629 14.3269 16.4986C14.7093 16.5831 15.0943 16.6643 15.4784 16.7437C15.2159 16.8616 14.914 16.9453 14.7268 17.1785C14.5623 18.2556 14.9543 19.3173 14.9193 20.3978C14.7268 20.5618 14.4862 20.7096 14.4232 20.9727C14.305 21.2827 14.4932 21.5979 14.4468 21.9148C14.4022 22.2599 14.4818 22.6033 14.5947 22.9262C14.7005 23.1969 14.6122 23.4873 14.5702 23.7632C14.4459 24.4773 14.3033 25.1931 14.2727 25.9183C14.2482 26.301 14.3838 26.6956 14.2587 27.0672C13.8509 27.9794 13.1658 28.7405 12.8035 29.6758C12.6434 30.1063 12.7248 30.5983 12.4947 31.0066C12.2488 31.4661 11.9093 31.9197 11.9399 32.4706C11.9128 32.8439 12.2173 33.1787 12.0887 33.552C11.8979 34.3131 11.7063 35.075 11.4945 35.8318C11.351 36.3349 11.3239 36.8858 11.484 37.3881C11.6984 37.4982 11.9399 37.535 12.1744 37.5845H13.0765C13.3679 37.558 13.6567 37.5102 13.948 37.4701C14.032 37.0754 13.9332 36.6902 13.7967 36.3229C13.6269 35.397 13.7783 34.413 14.2517 33.5964C14.4153 33.3846 14.7128 33.3026 14.8292 33.0497C15.0033 32.6884 15.0864 32.293 15.2457 31.9257C15.4697 31.4029 15.7759 30.9118 15.9159 30.3557C15.9938 30.0516 15.9045 29.7398 15.9325 29.4324C16.0174 29.0915 16.174 28.7576 16.4313 28.5116C16.776 28.1964 16.9108 27.7138 17.2879 27.4276C17.5452 27.2397 17.5574 26.9032 17.6117 26.6153C17.6624 26.2343 17.7893 25.8696 17.9302 25.5134C18.1305 25.0206 18.2688 24.4799 18.6547 24.0912C18.8997 23.841 19.0222 23.5078 19.1114 23.1764C19.2645 23.466 19.387 23.7872 19.6329 24.0144C19.9085 24.1493 20.3102 24.0767 20.4773 24.3851C20.9577 25.0992 20.9935 25.5057 21.4757 26.2198C21.7058 26.6631 22.2605 26.5547 22.6709 26.5666C22.9072 26.8835 23.1705 26.9749 23.0918 27.3593C23.0769 27.7923 22.7024 28.1263 22.7549 28.5696C22.796 29.4716 22.8643 30.3813 23.104 31.2551C23.188 31.6626 23.405 32.0367 23.412 32.4604C23.4225 32.9507 23.3272 33.7536 23.2265 34.2379C22.9815 34.8862 22.8144 35.5644 22.7829 36.2589C23.3622 36.592 24.0307 36.2537 24.6362 36.451C25.3003 36.6654 25.9968 36.7423 26.6924 36.7295C27.1203 36.7218 27.549 36.6808 27.9699 36.6167C27.9725 36.3801 28.0513 36.123 27.941 35.9018C27.591 35.4978 27.0057 35.4961 26.5804 35.2168C26.2365 34.9144 25.9557 34.5454 25.6687 34.1909C25.4263 33.9125 25.7509 33.5272 25.7413 33.1762C25.7448 32.6432 25.7422 32.0939 25.9434 31.5917C26.0922 31.1919 26.0423 30.7597 25.9618 30.3523C25.8533 29.8509 26.037 29.3563 26.0843 28.8601C26.1525 28.1836 26.2015 27.5053 26.2453 26.8271C26.2768 26.4402 26.1412 26.0712 26.0449 25.7031C25.988 25.3563 25.6503 25.1607 25.5514 24.8318C24.9722 23.2721 24.4419 21.9883 23.3009 20.7446C22.8625 20.3184 22.6412 19.606 22.9072 19.0329C23.1539 19.0986 23.3989 19.1712 23.6492 19.2327C23.916 18.8817 24.1768 18.4939 24.2197 18.0429C24.2634 17.5782 24.2765 17.111 24.3185 16.6463C24.3378 16.1398 24.4498 15.6179 24.3159 15.1208C24.2284 14.7808 23.8845 14.6339 23.6185 14.4614C23.6824 14.2248 23.7472 13.9899 23.804 13.7516C24.6817 14.1692 25.4954 14.7748 26.478 14.9235C26.7414 14.9628 27.0232 15.0858 27.2848 14.9679C27.6453 14.7988 27.9235 14.5032 28.2385 14.2658C28.809 13.8276 28.7303 13.0281 28.9289 12.4028C29.1232 12.3294 29.3209 12.2619 29.5178 12.1901C29.3883 11.6358 29.1625 11.0755 29.2395 10.4972C29.4758 10.182 29.7742 9.99322 30.02 9.68487C30.1959 9.45083 30.5004 9.39018 30.7778 9.39701C31.6134 9.39274 32.4499 9.40726 33.2864 9.39787C33.3135 9.27914 33.2147 9.5166 33.2444 9.39787C34.1142 9.44656 34.9848 9.26206 35.8563 9.36797C36.3997 9.45937 37.1294 9.42178 37.6754 9.38249C37.6465 9.22533 37.6325 8.76408 37.6255 8.60776ZM26.8657 11.5948C26.7003 11.3061 26.4527 11.0345 26.4037 10.7013C26.4299 10.6663 26.4842 10.5988 26.5104 10.5647C26.8657 10.5279 27.2235 10.551 27.5797 10.5681C27.3495 10.9149 27.1063 11.2548 26.8657 11.5948ZM26.814 10.4775C27.0503 10.3597 27.1264 10.1162 27.157 9.87108C27.3469 9.86168 27.5377 9.8557 27.7302 9.85143C27.7372 10.0317 27.7433 10.2102 27.7503 10.3904C27.4423 10.4579 27.1264 10.457 26.814 10.4775Z" fill="white"/>
<path d="M37.625 19.6462H31.5V17.9379H39.375C39.2604 17.2606 38.7975 16.6558 38.1544 16.3936C37.723 16.2005 37.2409 16.2313 36.7806 16.2313L31.5 16.2296C30.625 16.2296 29.75 17.0837 29.75 17.9379V19.6462C29.7981 20.4987 30.625 21.3546 31.5 21.3546H37.625V23.0629H29.75C29.8673 23.607 30.1613 24.1195 30.6408 24.4236C31.0608 24.7191 31.5884 24.7858 32.0906 24.7712H37.625C38.5 24.7712 39.375 23.9171 39.375 23.0629V21.3546C39.375 20.5004 38.605 19.6625 37.625 19.6462ZM4.375 17.9379H11.375C11.375 16.9941 10.5919 16.2296 9.625 16.2296H4.375C3.40812 16.2296 2.625 16.9941 2.625 17.9379V23.0629C2.625 24.0068 3.40812 24.7712 4.375 24.7712H9.625C10.5919 24.7712 11.375 24.0068 11.375 23.0629H4.375V17.9379Z" fill="white"/>
</svg>
