<svg width="41" height="41" viewBox="0 0 41 41" fill="none" xmlns="http://www.w3.org/2000/svg">
<path fill-rule="evenodd" clip-rule="evenodd" d="M10.5052 23.0622L17.0823 30.1799L10.975 31.6038L7.68642 28.7569L10.5052 23.0622ZM27.8635 9.39551L30.7489 10.9817L29.7871 16.2288L23.0546 11.8359L27.8635 9.39551ZM9.92861 9.39551C10.2489 9.39551 10.506 9.40917 10.8895 9.71582C11.4234 10.1429 13.3923 11.5369 13.3923 11.5369L13.7493 12.1716C14.3993 12.204 14.4155 12.2629 15.2364 12.866L33.3114 25.1267C33.1722 25.4282 31.0231 31.6038 31.0231 31.6038H27.7055L7.68642 10.4632C7.68642 10.4632 8.01272 10.3411 8.32705 10.1429C8.8199 9.83284 9.44003 9.39551 9.92861 9.39551ZM12.3843 5.12467H5.12392C4.67293 5.35017 4.26976 5.61155 4.26976 6.5127V12.3851V14.2002L5.11367 16.5474L4.26976 17.7236V18.6846L5.12392 19.3252V20.4997L4.26976 21.3538V24.557L5.12392 25.0908V28.6143C4.23218 29.2489 4.26976 30.0023 4.26976 30.8684V34.9137C6.26765 35.4126 5.93624 35.8747 8.22028 35.8747C10.2387 35.8747 11.5302 35.8747 11.5302 35.8747C11.8394 35.855 12.0803 35.7901 12.3843 35.7611C13.2334 35.6791 13.7724 35.0205 13.7724 35.0205L16.0145 35.8747L16.8687 35.0205C16.8687 35.0205 17.9885 36.4068 18.2567 36.7288L19.0041 35.8747L21.3531 36.7288C21.3531 36.7288 22.2243 35.8926 23.1682 35.8747H27.7593C27.8294 35.8072 28.6135 35.0205 28.6135 35.0205C28.9731 35.2358 28.6554 35.8747 31.9234 35.8747C32.8254 35.8747 33.6317 35.6611 33.6317 35.6611C33.4934 35.1999 33.478 35.2938 33.2047 35.0205C33.2047 35.0205 35.3401 35.0205 36.7281 35.8747V22.6411L35.0198 23.1689C35.0531 22.8982 35.8423 22.5386 35.8739 21.9945C35.9141 21.3086 35.8363 18.9314 35.7364 18.4292C35.6852 18.1729 35.1957 17.4221 35.0198 17.1898C35.229 16.6252 35.8739 16.2288 35.8739 16.2288V15.5882L36.7281 15.0902V11.4839L35.8739 7.90072L36.7281 6.97565V5.95407L35.8261 5.17251L32.8963 4.6882L32.2198 5.17251L31.8815 4.60876C31.8815 4.60876 27.4535 4.27222 26.6506 4.27222C25.6231 4.27222 25.7725 4.34909 25.4249 5.50649L23.9506 5.65682L23.8088 5.12467H22.314L22.56 4.8539C22.8214 4.60705 22.73 4.70613 22.9342 4.27051H17.7938C17.7135 4.41742 17.4197 4.75055 17.1882 5.12467C17.1882 5.12467 16.7372 5.1204 16.3989 5.3459C16.0607 5.5714 16.0624 5.97884 15.6114 5.97884C15.1604 5.97884 14.2251 5.97884 13.6955 5.97884C12.568 5.97884 12.3843 5.12467 12.3843 5.12467Z" fill="#F44336"/>
</svg>
