<svg width="41" height="41" viewBox="0 0 41 41" fill="none" xmlns="http://www.w3.org/2000/svg">
<path d="M20.5007 5.97949C18.3694 5.97949 16.259 6.39927 14.29 7.21486C12.321 8.03046 10.5319 9.22589 9.0249 10.7329C7.51788 12.2399 6.32245 14.029 5.50686 15.998C4.69126 17.967 4.27148 20.0774 4.27148 22.2087C4.27148 24.3399 4.69126 26.4503 5.50686 28.4193C6.32245 30.3883 7.51788 32.1774 9.0249 33.6844C10.5319 35.1914 12.321 36.3869 14.29 37.2025C16.259 38.018 18.3694 38.4378 20.5007 38.4378C22.6319 38.4378 24.7423 38.018 26.7113 37.2025C28.6803 36.3869 30.4694 35.1914 31.9764 33.6844C33.4834 32.1774 34.6789 30.3883 35.4944 28.4193C36.31 26.4503 36.7298 24.3399 36.7298 22.2087C36.7298 20.0774 36.31 17.967 35.4944 15.998C34.6789 14.029 33.4834 12.2399 31.9764 10.7329C30.4694 9.22589 28.6803 8.03046 26.7113 7.21486C24.7423 6.39927 22.6319 5.97949 20.5007 5.97949Z" fill="#DD9F05"/>
<path d="M20.4993 7.6875C16.6482 7.6875 12.9548 9.21737 10.2316 11.9406C7.50838 14.6637 5.97852 18.3572 5.97852 22.2083C5.97852 26.0595 7.50838 29.7529 10.2316 32.4761C12.9548 35.1993 16.6482 36.7292 20.4993 36.7292C24.3505 36.7292 28.0439 35.1993 30.7671 32.4761C33.4903 29.7529 35.0202 26.0595 35.0202 22.2083C35.0202 18.3572 33.4903 14.6637 30.7671 11.9406C28.0439 9.21737 24.3505 7.6875 20.4993 7.6875Z" fill="#01579B"/>
<path d="M29.041 27.3336C29.8243 29.8252 27.19 31.6428 25.1264 31.6428C23.9972 31.6428 22.5997 31.2123 22.2077 29.8961C20.7513 30.6699 19.5051 31.5267 18.791 32.0469V33.3127H29.8226C31.5292 31.8794 32.9095 30.072 33.8124 27.9998C33.0821 27.7265 31.5933 27.3336 29.041 27.3336ZM31.2302 12.4463C27.8495 13.4397 25.4467 15.2437 24.3525 16.1927C23.5991 18.4793 21.7951 20.9974 18.791 23.0627V29.0419C18.791 29.0419 21.1793 24.678 26.8347 23.3472C30.5213 22.4793 33.7065 22.2325 35.0185 22.1633C35.0065 18.4178 33.5707 15.0131 31.2302 12.4463Z" fill="#0277BD"/>
<path d="M29.826 11.0988C29.0154 10.4189 28.1339 9.82012 27.1875 9.32812C26.2368 9.76802 25.0469 10.3728 23.916 11.1048C24.4533 11.777 24.7335 12.6765 24.7574 13.7015C25.9959 12.8276 27.7068 11.8325 29.826 11.0988Z" fill="#0091EA"/>
<path d="M20.5 9.39551C17.1019 9.39551 13.843 10.7454 11.4402 13.1482C9.03738 15.551 7.6875 18.8099 7.6875 22.208C7.6875 25.6061 9.03738 28.865 11.4402 31.2678C13.843 33.6706 17.1019 35.0205 20.5 35.0205C23.8981 35.0205 27.157 33.6706 29.5598 31.2678C31.9626 28.865 33.3125 25.6061 33.3125 22.208C33.3125 18.8099 31.9626 15.551 29.5598 13.1482C27.157 10.7454 23.8981 9.39551 20.5 9.39551Z" fill="#0277BD"/>
<path d="M25.246 10.3154C24.8043 10.5597 24.3568 10.8194 23.916 11.1047C24.4533 11.7769 24.7335 12.6763 24.7574 13.7013C25.6158 13.0957 26.716 12.4355 28.0066 11.841C27.1576 11.2251 26.2342 10.7101 25.246 10.3154Z" fill="#00B0FF"/>
<path d="M33.3118 22.2086C33.3118 18.6296 31.8418 15.3974 29.4758 13.0732C27.0201 14.0812 25.2442 15.4188 24.3516 16.1927C23.5991 18.4793 21.7951 20.9973 18.791 23.0627V29.0419C18.791 29.0419 21.1793 24.6779 26.8347 23.3472C29.3921 22.7458 31.6906 22.446 33.3076 22.2931C33.3076 22.2649 33.3118 22.2376 33.3118 22.2086Z" fill="#0091EA"/>
<path d="M33.7172 31.6045H28.1882V33.3128H32.3138C32.8194 32.7756 33.2884 32.2067 33.7172 31.6045ZM18.7923 6.07089V38.3464C19.3544 38.4054 19.9232 38.4378 20.5007 38.4378V5.97949C19.9232 5.97949 19.3544 6.01195 18.7923 6.07089ZM9.39648 34.0218C9.93376 34.5266 10.5026 34.9964 11.1048 35.4252V8.99214C10.5026 9.42093 9.93376 9.89072 9.39648 10.3955V34.0218Z" fill="#B3831D"/>
<path d="M9.39648 31.5552C9.91667 32.1728 10.4898 32.7442 11.1048 33.2678V11.1475C10.4898 11.6711 9.91667 12.2425 9.39648 12.8601V31.5552Z" fill="#01579B"/>
<path d="M8.54102 2.5625H18.791V33.3125H35.8743L31.6035 38.4375H8.54102L11.1035 35.0208V5.97917L8.54102 2.5625Z" fill="#FFC107"/>
<path d="M20.4993 31.6042V7.6875C19.9202 7.6875 19.3522 7.73106 18.791 7.79683V33.3125H29.8465C30.4641 32.7923 31.0355 32.2192 31.5591 31.6042H20.4993Z" fill="#01579B"/>
<path d="M20.4993 21.6914C20.0022 22.1561 19.4419 22.6148 18.791 23.0623V29.0415C18.791 29.0415 19.3343 28.0601 20.4993 26.8882V21.6914Z" fill="#0277BD"/>
<path d="M18.7923 33.3125V2.5625H17.084V35.0208H34.4518L35.8757 33.3125H18.7923Z" fill="#E8A30A"/>
<path d="M29.041 27.333C29.8243 29.8246 27.19 31.6423 25.1264 31.6423C23.9972 31.6423 22.5997 31.2118 22.2077 29.8955C20.7513 30.6694 19.5051 31.5261 18.791 32.0463V33.3122H26.8731C29.1683 31.9916 31.0099 29.9843 32.1263 27.5662C31.3413 27.4329 30.3265 27.333 29.041 27.333Z" fill="#0091EA"/>
<path d="M31.0474 32.1589C31.2149 31.983 31.3601 31.7874 31.5181 31.6037H25.6329C25.4621 31.6268 25.2921 31.6422 25.1264 31.6422C24.9478 31.6422 24.7625 31.6268 24.5763 31.6037H20.4993V30.8896C19.7955 31.333 19.2027 31.7464 18.791 32.0462V33.3121H29.8226C30.2471 32.955 30.652 32.5749 31.0338 32.1735C31.0381 32.1692 31.0423 32.1641 31.0474 32.1589Z" fill="#0277BD"/>
</svg>
