<svg id="Layer_1" data-name="Layer 1" xmlns="http://www.w3.org/2000/svg" width="36.7" height="41.5" viewBox="0 0 36.7 41.5">
  <defs>
    <style>
      .cls-1 {
        fill: #ff6d1d;
      }
    </style>
  </defs>
  <g>
    <path class="cls-1" d="M32.3,41.5H6.6a4.4,4.4,0,0,1-4.4-4.4h0V4.4A4.4,4.4,0,0,1,6.6,0H32.3a4.4,4.4,0,0,1,4.4,4.4h0V37.1a4.4,4.4,0,0,1-4.4,4.4ZM6.6,1.4A2.9,2.9,0,0,0,3.7,4.3V37a2.9,2.9,0,0,0,2.9,2.9H32.3A2.9,2.9,0,0,0,35.2,37h0V4.4a2.9,2.9,0,0,0-2.9-2.9H6.6Z" transform="translate(0 0)"/>
    <path class="cls-1" d="M9.4,41.5H6.6a4.4,4.4,0,0,1-4.4-4.4h0V4.4A4.4,4.4,0,0,1,6.6,0H9.4a.7.7,0,0,1,.7.7h0V40.8C10.2,41.2,9.8,41.5,9.4,41.5ZM6.6,1.4A2.9,2.9,0,0,0,3.7,4.3V37a2.9,2.9,0,0,0,2.9,2.9h2V1.4Z" transform="translate(0 0)"/>
    <g>
      <path class="cls-1" d="M5.2,6.9Z" transform="translate(0 0)"/>
      <path class="cls-1" d="M5.2,7.6H.7a.7.7,0,1,1,0-1.4H5.1a.7.7,0,0,1,.7.7c.1.3-.2.6-.5.7Z" transform="translate(0 0)"/>
    </g>
    <g>
      <path class="cls-1" d="M5.2,12.4Z" transform="translate(0 0)"/>
      <path class="cls-1" d="M5.2,13.2H.7a.7.7,0,1,1,0-1.4H5.1a.7.7,0,0,1,.7.7h0c.1.3-.2.6-.5.7Z" transform="translate(0 0)"/>
    </g>
    <g>
      <path class="cls-1" d="M5.2,17.9Z" transform="translate(0 0)"/>
      <path class="cls-1" d="M5.2,18.7H.7a.7.7,0,0,1,0-1.4H5.1a.7.7,0,0,1,.7.7h0C5.8,18.4,5.6,18.7,5.2,18.7Z" transform="translate(0 0)"/>
    </g>
    <g>
      <path class="cls-1" d="M5.2,23.5Z" transform="translate(0 0)"/>
      <path class="cls-1" d="M5.2,24.2H.7a.7.7,0,0,1,0-1.4H5.1a.7.7,0,0,1,.7.7h0C5.8,23.9,5.6,24.2,5.2,24.2Z" transform="translate(0 0)"/>
    </g>
    <g>
      <path class="cls-1" d="M5.2,29Z" transform="translate(0 0)"/>
      <path class="cls-1" d="M5.2,29.8H.7a.7.7,0,0,1-.7-.7H0a.8.8,0,0,1,.7-.8H5.1a.7.7,0,0,1,.7.7h0C5.8,29.4,5.6,29.8,5.2,29.8Z" transform="translate(0 0)"/>
    </g>
    <g>
      <path class="cls-1" d="M5.2,34.6Z" transform="translate(0 0)"/>
      <path class="cls-1" d="M5.2,35.3H.7a.7.7,0,0,1,0-1.4H5.1a.7.7,0,0,1,.7.7h0c.1.3-.2.6-.5.7Z" transform="translate(0 0)"/>
    </g>
    <path class="cls-1" d="M22.3,22.3a6.6,6.6,0,1,1,6.6-6.6A6.8,6.8,0,0,1,22.3,22.3Zm0-11.7a5.1,5.1,0,1,0,5.1,5.1,5.1,5.1,0,0,0-5.1-5.1Z" transform="translate(0 0)"/>
    <path class="cls-1" d="M28.2,30.1h-12a.7.7,0,0,1-.7-.7h0V27.6a6.7,6.7,0,1,1,13.4,0v1.8C29,29.8,28.7,30.1,28.2,30.1ZM17,28.7H27.5v-1a5.2,5.2,0,0,0-10.4,0h0v1Z" transform="translate(0 0)"/>
  </g>
</svg>
