<svg id="Layer_1" data-name="Layer 1" xmlns="http://www.w3.org/2000/svg" width="36.7" height="41.5" viewBox="0 0 36.7 41.5">
  <defs>
    <style>
      .cls-1 {
        fill: #fff;
      }

      .cls-2 {
        fill: #231f20;
      }

      .cls-3 {
        fill: #9edcf7;
      }
    </style>
  </defs>
  <g>
    <g>
      <path class="cls-1" d="M43.1,8.1V40.8a3.8,3.8,0,0,1-3.7,3.7H13.7A3.8,3.8,0,0,1,10,40.8V8.1a3.8,3.8,0,0,1,3.7-3.7H39.4A3.7,3.7,0,0,1,43.1,8.1Z" transform="translate(-7.1 -3.7)"/>
      <path class="cls-2" d="M39.4,45.2H13.7a4.4,4.4,0,0,1-4.4-4.4V8.1a4.4,4.4,0,0,1,4.4-4.4H39.4a4.4,4.4,0,0,1,4.4,4.4V40.8A4.4,4.4,0,0,1,39.4,45.2ZM13.7,5.1A2.9,2.9,0,0,0,10.8,8V40.7a2.9,2.9,0,0,0,2.9,2.9H39.4a2.9,2.9,0,0,0,2.9-2.9V8.1a2.9,2.9,0,0,0-2.9-2.9H13.7Z" transform="translate(-7.1 -3.7)"/>
    </g>
    <path class="cls-2" d="M16.5,45.2H13.7a4.4,4.4,0,0,1-4.4-4.4V8.1a4.4,4.4,0,0,1,4.4-4.4h2.8a.7.7,0,0,1,.7.7V44.5C17.3,44.9,16.9,45.2,16.5,45.2ZM13.7,5.1A2.9,2.9,0,0,0,10.8,8V40.7a2.9,2.9,0,0,0,2.9,2.9h2V5.1Z" transform="translate(-7.1 -3.7)"/>
    <g>
      <path class="cls-3" d="M12.3,10.6h0Z" transform="translate(-7.1 -3.7)"/>
      <path class="cls-2" d="M12.3,11.3H7.8a.7.7,0,1,1,0-1.4h4.4a.7.7,0,0,1,.7.7A.6.6,0,0,1,12.3,11.3Z" transform="translate(-7.1 -3.7)"/>
    </g>
    <g>
      <path class="cls-3" d="M12.3,16.1h0Z" transform="translate(-7.1 -3.7)"/>
      <path class="cls-2" d="M12.3,16.9H7.8a.7.7,0,0,1,0-1.4h4.4a.7.7,0,0,1,.7.7A.6.6,0,0,1,12.3,16.9Z" transform="translate(-7.1 -3.7)"/>
    </g>
    <g>
      <path class="cls-3" d="M12.3,21.6h0Z" transform="translate(-7.1 -3.7)"/>
      <path class="cls-2" d="M12.3,22.4H7.8a.7.7,0,0,1,0-1.4h4.4a.7.7,0,0,1,.7.7C12.9,22.1,12.7,22.4,12.3,22.4Z" transform="translate(-7.1 -3.7)"/>
    </g>
    <g>
      <path class="cls-3" d="M12.3,27.2h0Z" transform="translate(-7.1 -3.7)"/>
      <path class="cls-2" d="M12.3,27.9H7.8a.7.7,0,0,1,0-1.4h4.4a.7.7,0,0,1,.7.7C12.9,27.6,12.7,27.9,12.3,27.9Z" transform="translate(-7.1 -3.7)"/>
    </g>
    <g>
      <path class="cls-3" d="M12.3,32.7h0Z" transform="translate(-7.1 -3.7)"/>
      <path class="cls-2" d="M12.3,33.5H7.8a.7.7,0,0,1-.7-.7.8.8,0,0,1,.7-.8h4.4a.7.7,0,0,1,.7.7C12.9,33.1,12.7,33.5,12.3,33.5Z" transform="translate(-7.1 -3.7)"/>
    </g>
    <g>
      <path class="cls-3" d="M12.3,38.3h0Z" transform="translate(-7.1 -3.7)"/>
      <path class="cls-2" d="M12.3,39H7.8a.7.7,0,0,1,0-1.4h4.4a.7.7,0,0,1,.7.7A.6.6,0,0,1,12.3,39Z" transform="translate(-7.1 -3.7)"/>
    </g>
    <path class="cls-2" d="M29.4,26A6.6,6.6,0,1,1,36,19.4,6.7,6.7,0,0,1,29.4,26Zm0-11.7a5.1,5.1,0,1,0,5.1,5.1A5.1,5.1,0,0,0,29.4,14.3Z" transform="translate(-7.1 -3.7)"/>
    <path class="cls-2" d="M35.3,33.8h-12a.7.7,0,0,1-.7-.7V31.3a6.7,6.7,0,0,1,13.4,0v1.8C36.1,33.5,35.8,33.8,35.3,33.8ZM24.1,32.4H34.6v-1a5.2,5.2,0,0,0-10.4,0v1Z" transform="translate(-7.1 -3.7)"/>
  </g>
</svg>
