<?xml version="1.0" encoding="UTF-8"?>
<svg width="24px" height="24px" viewBox="0 0 24 24" version="1.1" xmlns="http://www.w3.org/2000/svg" xmlns:xlink="http://www.w3.org/1999/xlink">
    <title>awesome/arrows-alt-h</title>
    <defs>
        <path d="M15.7958288,9.32112061 L15.7958288,10.7548638 L8.20417118,10.7548638 L8.20417118,9.32112061 C8.20417118,8.65553305 7.39947079,8.32221009 6.92880931,8.79284045 L4.24992991,11.4717198 C3.95816337,11.7634864 3.95816337,12.2364825 4.24992991,12.528249 L6.92880931,15.2071284 C7.39943966,15.6777588 8.20417118,15.3444358 8.20417118,14.6788483 L8.20417118,13.2451362 L15.7958288,13.2451362 L15.7958288,14.6788794 C15.7958288,15.3444669 16.6005292,15.6777899 17.0711907,15.2071596 L19.7500701,12.5282802 C20.0418366,12.2365136 20.0418366,11.7635175 19.7500701,11.471751 L17.0711907,8.79287158 C16.6005603,8.32221009 15.7958288,8.65553305 15.7958288,9.32112061 Z" id="path-1"></path>
    </defs>
    <g id="awesome/arrows-alt-h" stroke="none" stroke-width="1" fill="none" fill-rule="evenodd">
        <mask id="mask-2" fill="white">
            <use xlink:href="#path-1"></use>
        </mask>
        <g fill-rule="nonzero"></g>
        <g id="Group" mask="url(#mask-2)" fill="#F25500">
            <g id="🎨-color">
                <rect id="Base" x="0" y="0" width="24" height="24"></rect>
            </g>
        </g>
    </g>
</svg>