<?xml version="1.0" encoding="UTF-8"?>
<svg width="24px" height="24px" viewBox="0 0 24 24" version="1.1" xmlns="http://www.w3.org/2000/svg" xmlns:xlink="http://www.w3.org/1999/xlink">
    <title>awesome/gamepad</title>
    <defs>
        <path d="M15.9999999,7.99999997 L7.99999995,7.99999997 C5.78999996,7.99999997 3.99999995,9.78999999 3.99999995,12 C3.99999995,14.21 5.78999996,16 7.99999995,16 C9.11999998,16 10.13,15.54 10.855,14.8 L13.1425,14.8 C13.8675,15.54 14.88,16 15.9975,16 C18.2075,16 19.9975,14.21 19.9975,12 C19.9975,9.78999999 18.21,7.99999997 15.9999999,7.99999997 Z M10.4,12.5 C10.4,12.665 10.265,12.8 10.1,12.8 L8.79999998,12.8 L8.79999998,14.1 C8.79999998,14.265 8.66499998,14.4 8.49999998,14.4 L7.49999997,14.4 C7.33499997,14.4 7.19999997,14.265 7.19999997,14.1 L7.19999997,12.8 L5.89999996,12.8 C5.73499996,12.8 5.59999996,12.665 5.59999996,12.5 L5.59999996,11.5 C5.59999996,11.335 5.73499996,11.2 5.89999996,11.2 L7.19999997,11.2 L7.19999997,9.89999999 C7.19999997,9.73499999 7.33499997,9.59999999 7.49999997,9.59999999 L8.49999998,9.59999999 C8.66499998,9.59999999 8.79999998,9.73499999 8.79999998,9.89999999 L8.79999998,11.2 L10.1,11.2 C10.265,11.2 10.4,11.335 10.4,11.5 L10.4,12.5 Z M15,14.2 C14.3375,14.2 13.8,13.6625 13.8,13 C13.8,12.3375 14.3375,11.8 15,11.8 C15.6625,11.8 16.2,12.3375 16.2,13 C16.2,13.6625 15.6625,14.2 15,14.2 Z M17,12.2 C16.3375,12.2 15.8,11.6625 15.8,11 C15.8,10.3375 16.3375,9.79999999 17,9.79999999 C17.6625,9.79999999 18.2,10.3375 18.2,11 C18.2,11.6625 17.6625,12.2 17,12.2 Z" id="path-1"></path>
    </defs>
    <g id="awesome/gamepad" stroke="none" stroke-width="1" fill="none" fill-rule="evenodd">
        <mask id="mask-2" fill="white">
            <use xlink:href="#path-1"></use>
        </mask>
        <g fill-rule="nonzero"></g>
        <g id="Group" mask="url(#mask-2)" fill="#F25500">
            <g id="🎨-color">
                <rect id="Base" x="0" y="0" width="24" height="24"></rect>
            </g>
        </g>
    </g>
</svg>