<?xml version="1.0" encoding="UTF-8"?>
<svg width="24px" height="24px" viewBox="0 0 24 24" version="1.1" xmlns="http://www.w3.org/2000/svg" xmlns:xlink="http://www.w3.org/1999/xlink">
    <title>awesome/video</title>
    <defs>
        <path d="M18.6666667,6.66666663 L18.3300556,6.66666663 C17.9764343,6.66666663 17.6372971,6.80714548 17.38725,7.05719441 L14.6666667,9.77777776 L14.6666667,7.99999997 C14.6666667,7.26361108 14.0697222,6.66666663 13.3333333,6.66666663 L5.33333329,6.66666663 C4.5969444,6.66666663 3.99999995,7.26361108 3.99999995,7.99999997 L3.99999995,16 C3.99999995,16.7363889 4.5969444,17.3333334 5.33333329,17.3333334 L13.3333333,17.3333334 C14.0697222,17.3333334 14.6666667,16.7363889 14.6666667,16 L14.6666667,14.2222222 L17.38725,16.9428056 C17.6372971,17.1928545 17.9764343,17.3333334 18.3300556,17.3333334 L18.6666667,17.3333334 C19.4030556,17.3333334 19.9999999,16.7363889 19.9999999,16 L19.9999999,7.99999997 C19.9999999,7.26361108 19.4030556,6.66666663 18.6666667,6.66666663 Z" id="path-1"></path>
    </defs>
    <g id="awesome/video" stroke="none" stroke-width="1" fill="none" fill-rule="evenodd">
        <mask id="mask-2" fill="white">
            <use xlink:href="#path-1"></use>
        </mask>
        <g fill-rule="nonzero"></g>
        <g id="Group" mask="url(#mask-2)" fill="#F25500">
            <g id="🎨-color">
                <rect id="Base" x="0" y="0" width="24" height="24"></rect>
            </g>
        </g>
    </g>
</svg>