<?xml version="1.0" encoding="UTF-8"?>
<svg width="24px" height="24px" viewBox="0 0 24 24" version="1.1" xmlns="http://www.w3.org/2000/svg" xmlns:xlink="http://www.w3.org/1999/xlink">
    <title>awesome/microphone</title>
    <defs>
        <path d="M8.99999998,11.9999999 L8.99999998,6.99999995 C8.99999998,5.34315621 10.3431562,3.99999995 12,3.99999995 C13.6568438,3.99999995 15,5.34315621 15,6.99999995 L15,11.9999999 C15,13.6568438 13.6568438,14.9999999 12,14.9999999 C10.3431562,14.9999999 8.99999998,13.6568438 8.99999998,11.9999999 Z M16.875,10.25 L16.125,10.25 C15.9179063,10.25 15.75,10.4179062 15.75,10.625 L15.75,11.95875 C15.75,14.0280313 14.0911875,15.7380625 12.0219375,15.7499375 C9.94415624,15.761875 8.24999997,14.0750625 8.24999997,12 L8.24999997,10.625 C8.24999997,10.4179062 8.08209373,10.25 7.87499997,10.25 L7.12499997,10.25 C6.91790622,10.25 6.74999997,10.4179062 6.74999997,10.625 L6.74999997,12 C6.74999997,14.64025 8.70915623,16.8311563 11.25,17.1961875 L11.25,18.625 L9.12499998,18.625 C8.91790623,18.625 8.74999997,18.7929063 8.74999997,19 L8.74999997,19.625 C8.74999997,19.8320938 8.91790623,20.0000001 9.12499998,20.0000001 L14.875,20.0000001 C15.0820938,20.0000001 15.25,19.8320938 15.25,19.625 L15.25,19 C15.25,18.7929063 15.0820938,18.625 14.875,18.625 L12.75,18.625 L12.75,17.1961875 C15.2908438,16.8311563 17.25,14.64025 17.25,12 L17.25,10.625 C17.25,10.4179062 17.0820938,10.25 16.875,10.25 Z" id="path-1"></path>
    </defs>
    <g id="awesome/microphone" stroke="none" stroke-width="1" fill="none" fill-rule="evenodd">
        <mask id="mask-2" fill="white">
            <use xlink:href="#path-1"></use>
        </mask>
        <g fill-rule="nonzero"></g>
        <g id="Group" mask="url(#mask-2)" fill="#F25500">
            <g id="🎨-color">
                <rect id="Base" x="0" y="0" width="24" height="24"></rect>
            </g>
        </g>
    </g>
</svg>