<?xml version="1.0" encoding="UTF-8"?>
<svg width="24px" height="24px" viewBox="0 0 24 24" version="1.1" xmlns="http://www.w3.org/2000/svg" xmlns:xlink="http://www.w3.org/1999/xlink">
    <title>awesome/align-left</title>
    <defs>
        <path d="M14,5.37499996 L14,6.62499997 C14,6.90115622 13.7761563,7.12499997 13.5,7.12499997 L5.49999996,7.12499997 C5.22384371,7.12499997 4.99999996,6.90115622 4.99999996,6.62499997 L4.99999996,5.37499996 C4.99999996,5.09884371 5.22384371,4.87499996 5.49999996,4.87499996 L13.5,4.87499996 C13.7761563,4.87499996 14,5.09884371 14,5.37499996 Z M4.99999996,9.37499998 L4.99999996,10.625 C4.99999996,10.9011562 5.22384371,11.125 5.49999996,11.125 L18.5,11.125 C18.7761563,11.125 19,10.9011562 19,10.625 L19,9.37499998 C19,9.09884373 18.7761563,8.87499998 18.5,8.87499998 L5.49999996,8.87499998 C5.22384371,8.87499998 4.99999996,9.09884373 4.99999996,9.37499998 Z M5.49999996,19.125 L18.5,19.125 C18.7761563,19.125 19,18.9011563 19,18.625 L19,17.375 C19,17.0988438 18.7761563,16.875 18.5,16.875 L5.49999996,16.875 C5.22384371,16.875 4.99999996,17.0988438 4.99999996,17.375 L4.99999996,18.625 C4.99999996,18.9011563 5.22384371,19.125 5.49999996,19.125 Z M13.5,12.875 L5.49999996,12.875 C5.22384371,12.875 4.99999996,13.0988438 4.99999996,13.375 L4.99999996,14.625 C4.99999996,14.9011563 5.22384371,15.125 5.49999996,15.125 L13.5,15.125 C13.7761563,15.125 14,14.9011563 14,14.625 L14,13.375 C14,13.0988438 13.7761563,12.875 13.5,12.875 Z" id="path-1"></path>
    </defs>
    <g id="awesome/align-left" stroke="none" stroke-width="1" fill="none" fill-rule="evenodd">
        <mask id="mask-2" fill="white">
            <use xlink:href="#path-1"></use>
        </mask>
        <g fill-rule="nonzero"></g>
        <g id="Group" mask="url(#mask-2)" fill="#F25500">
            <g id="🎨-color">
                <rect id="Base" x="0" y="0" width="24" height="24"></rect>
            </g>
        </g>
    </g>
</svg>