<?xml version="1.0" encoding="UTF-8"?>
<svg width="24px" height="24px" viewBox="0 0 24 24" version="1.1" xmlns="http://www.w3.org/2000/svg" xmlns:xlink="http://www.w3.org/1999/xlink">
    <title>awesome/stopwatch</title>
    <defs>
        <path d="M18.5,13.4999999 C18.5,17.090625 15.590625,19.9999999 12,19.9999999 C8.40937498,19.9999999 5.49999996,17.090625 5.49999996,13.4999999 C5.49999996,10.25 7.88437497,7.55624997 11,7.07812497 L11,5.99999995 L10.125,5.99999995 C9.91874999,5.99999995 9.74999999,5.83124996 9.74999999,5.62499996 L9.74999999,4.37499995 C9.74999999,4.16874995 9.91874999,3.99999995 10.125,3.99999995 L13.875,3.99999995 C14.08125,3.99999995 14.25,4.16874995 14.25,4.37499995 L14.25,5.62499996 C14.25,5.83124996 14.08125,5.99999995 13.875,5.99999995 L13,5.99999995 L13,7.07812497 C14.171875,7.25937497 15.240625,7.75312497 16.115625,8.47187498 L16.975,7.61249997 C17.121875,7.46562497 17.359375,7.46562497 17.50625,7.61249997 L18.390625,8.49687498 C18.5375,8.64374998 18.5375,8.88124998 18.390625,9.02812498 L17.471875,9.94687499 L17.453125,9.96562499 C18.115625,10.978125 18.5,12.19375 18.5,13.4999999 Z M13,14.625 L13,9.89062499 C13,9.68437499 12.83125,9.51562498 12.625,9.51562498 L11.375,9.51562498 C11.16875,9.51562498 11,9.68437499 11,9.89062499 L11,14.625 C11,14.83125 11.16875,15 11.375,15 L12.625,15 C12.83125,15 13,14.83125 13,14.625 Z" id="path-1"></path>
    </defs>
    <g id="awesome/stopwatch" stroke="none" stroke-width="1" fill="none" fill-rule="evenodd">
        <mask id="mask-2" fill="white">
            <use xlink:href="#path-1"></use>
        </mask>
        <g fill-rule="nonzero"></g>
        <g id="Group" mask="url(#mask-2)" fill="#F25500">
            <g id="🎨-color">
                <rect id="Base" x="0" y="0" width="24" height="24"></rect>
            </g>
        </g>
    </g>
</svg>