<?xml version="1.0" encoding="UTF-8"?>
<svg width="24px" height="24px" viewBox="0 0 24 24" version="1.1" xmlns="http://www.w3.org/2000/svg" xmlns:xlink="http://www.w3.org/1999/xlink">
    <title>awesome/address-book</title>
    <defs>
        <path d="M18.625,8.99999995 C18.8320938,8.99999995 19,8.83209373 19,8.62499998 L19,7.37499997 C19,7.16790622 18.8320938,6.99999995 18.625,6.99999995 L18,6.99999995 L18,5.49999995 C18,4.67156245 17.3284375,3.99999995 16.5,3.99999995 L6.49999996,3.99999995 C5.67156246,3.99999995 4.99999996,4.67156245 4.99999996,5.49999995 L4.99999996,18.4999999 C4.99999996,19.3284375 5.67156246,19.9999999 6.49999996,19.9999999 L16.5,19.9999999 C17.3284375,19.9999999 18,19.3284375 18,18.4999999 L18,16.9999999 L18.625,16.9999999 C18.8320938,16.9999999 19,16.8320938 19,16.625 L19,15.375 C19,15.1679063 18.8320938,14.9999999 18.625,14.9999999 L18,14.9999999 L18,12.9999999 L18.625,12.9999999 C18.8320938,12.9999999 19,12.8320938 19,12.625 L19,11.375 C19,11.1679062 18.8320938,10.9999999 18.625,10.9999999 L18,10.9999999 L18,8.99999995 L18.625,8.99999995 Z M11.5,7.99999997 C12.8807188,7.99999997 14,9.11928123 14,10.5 C14,11.8807187 12.8807188,13 11.5,13 C10.1192812,13 8.99999998,11.8807187 8.99999998,10.5 C8.99999998,9.11928123 10.1192812,7.99999997 11.5,7.99999997 Z M15.5,15.25 C15.5,15.6642188 15.1642188,16 14.75,16 L8.24999998,16 C7.83578122,16 7.49999997,15.6642188 7.49999997,15.25 L7.49999997,14.6711563 C7.49999997,13.9828438 7.96843747,13.382875 8.63618748,13.2159375 L9.75046874,12.937375 C10.659875,13.5915 12.078875,13.7794063 13.2495313,12.937375 L14.3638125,13.2159375 C15.0315625,13.382875 15.5,13.982875 15.5,14.6711563 L15.5,15.25 Z" id="path-1"></path>
    </defs>
    <g id="awesome/address-book" stroke="none" stroke-width="1" fill="none" fill-rule="evenodd">
        <mask id="mask-2" fill="white">
            <use xlink:href="#path-1"></use>
        </mask>
        <g fill-rule="nonzero"></g>
        <g id="Group" mask="url(#mask-2)" fill="#F25500">
            <g id="🎨-color">
                <rect id="Base" x="0" y="0" width="24" height="24"></rect>
            </g>
        </g>
    </g>
</svg>