<?xml version="1.0" encoding="UTF-8"?>
<svg width="16px" height="20px" viewBox="0 0 16 20" version="1.1" xmlns="http://www.w3.org/2000/svg" xmlns:xlink="http://www.w3.org/1999/xlink">
    <title>842D445F-94FF-4452-8EC4-04F736CC2565</title>
    <defs>
        <path d="M10.2221776,5.73165851 C8.51263244,4.02211338 5.74217142,4.02211338 4.03262628,5.73165851 C2.32308115,7.44120365 2.32308115,10.2116647 4.03262628,11.9212098 C5.74217142,13.6307549 8.51263244,13.6307549 10.2221776,11.9212098 C11.9317227,10.2116647 11.9317227,7.44120365 10.2221776,5.73165851 M14.7739619,16.4729941 C14.4317027,16.8143779 13.8776105,16.8143779 13.5353513,16.4729941 L10.7788958,13.7156632 C8.37870494,15.5101167 4.97537084,15.3403001 2.79489109,13.158945 C0.401702969,10.7666322 0.401702969,6.88711145 2.79489109,4.49392332 C5.18720388,2.1007352 9.06759998,2.1007352 11.4599128,4.49392332 C13.6412679,6.67440307 13.8110844,10.0777372 12.016631,12.477928 L14.7739619,15.2352589 C15.1153457,15.5766427 15.1153457,16.1307349 14.7739619,16.4729941" id="path-1"></path>
    </defs>
    <g id="Champ-матч-редакция" stroke="none" stroke-width="1" fill="none" fill-rule="evenodd">
        <g id="Редактировать-пользователя" transform="translate(-732.000000, -459.000000)">
            <g id="window_preview" transform="translate(732.000000, 456.000000)">
                <g id="Icon/Search" transform="translate(0.000000, 3.000000)">
                    <mask id="mask-2" fill="white">
                        <use xlink:href="#path-1"></use>
                    </mask>
                    <g id="Search-icon"></g>
                    <g id="UI/Color/Flat/Grey" mask="url(#mask-2)" fill="#516173">
                        <rect id="Base" x="0" y="0" width="16" height="19.3917051"></rect>
                    </g>
                </g>
            </g>
        </g>
    </g>
</svg>