<?xml version="1.0" encoding="UTF-8"?>
<svg width="16px" height="16px" viewBox="0 0 16 16" version="1.1" xmlns="http://www.w3.org/2000/svg" xmlns:xlink="http://www.w3.org/1999/xlink">
    <title>0EFFF0D0-4920-4C32-A7B4-5DBAEFEA5594</title>
    <defs>
        <path d="M13.1373069,8.18140221 C13.2107905,7.79820133 13.2496536,7.40278146 13.2496536,6.99819736 C13.2496536,3.54663169 10.4514217,0.748611889 6.9999833,0.748611889 C6.59535678,0.748611889 6.19989449,0.787517469 5.81665118,0.861001075 C4.43692436,-0.341720199 2.34213248,-0.287201473 1.02833726,1.02655132 C-0.285500387,2.34026169 -0.34006154,4.43518085 0.862787015,5.81499252 C0.789345837,6.19815097 0.750440256,6.59361326 0.750440256,6.99819736 C0.750440256,10.4498055 3.54862976,13.2478253 7.00002573,13.2478253 C7.40469468,13.2478253 7.8001994,13.2089197 8.18348514,13.1354361 C9.5631271,14.3381574 11.6579614,14.2836386 12.9717566,12.9698858 C14.2854246,11.656133 14.3400706,9.56121388 13.1373069,8.18140221 Z M7.11907596,10.8474315 C5.26811219,10.8474315 3.72567773,10.0201046 3.72567773,9.01042625 C3.72567773,8.56176048 3.97794882,8.15497017 4.55279257,8.15497017 C5.43637776,8.15497017 5.52059541,9.41700442 7.03524016,9.41700442 C7.76422129,9.41700442 8.22705769,9.09447419 8.22705769,8.6738951 C8.22705769,8.15497017 7.77834948,8.07087981 7.04919865,7.88861331 L5.84325292,7.5942122 C4.65109598,7.29964137 3.72567773,6.80888798 3.72567773,5.43459182 C3.72567773,3.76585212 5.38024681,3.14892077 6.79658815,3.14892077 C8.35327809,3.14892077 9.92379923,3.76585212 9.92379923,4.70531371 C9.92379923,5.18202375 9.60101443,5.60298468 9.06834315,5.60298468 C8.26897559,5.60298468 8.24071919,4.66339581 6.95093766,4.66339581 C6.23583018,4.66339581 5.77307863,4.85966322 5.77307863,5.29445536 C5.77307863,5.77116541 6.23583018,5.88321518 6.86701701,6.02356377 L7.7221761,6.21995846 C8.88586452,6.48618804 10.2744162,6.97706871 10.2744162,8.40766553 C10.2744162,10.0761082 8.66151041,10.8474315 7.11907596,10.8474315 Z" id="path-1"></path>
    </defs>
    <g id="Posts" stroke="none" stroke-width="1" fill="none" fill-rule="evenodd">
        <g transform="translate(-1228.000000, -985.000000)" id="footer">
            <g transform="translate(0.000000, 964.000000)">
                <g id="Icon/Social/skype" transform="translate(1228.000000, 21.000000)">
                    <g id="↳-🎨Color" transform="translate(1.000000, 1.000000)">
                        <mask id="mask-2" fill="white">
                            <use xlink:href="#path-1"></use>
                        </mask>
                        <use id="Mask" fill="#000000" fill-rule="nonzero" xlink:href="#path-1"></use>
                        <g id="UI/Color/Flat/Grey-50%" mask="url(#mask-2)" fill="#A8AAB7">
                            <g transform="translate(-1.000000, -1.000000)" id="Base">
                                <rect x="0" y="0" width="16" height="16"></rect>
                            </g>
                        </g>
                    </g>
                </g>
            </g>
        </g>
    </g>
</svg>