<?xml version="1.0" encoding="UTF-8"?>
<svg width="24px" height="24px" viewBox="0 0 24 24" version="1.1" xmlns="http://www.w3.org/2000/svg" xmlns:xlink="http://www.w3.org/1999/xlink">
    <title>awesome/chart-bar</title>
    <defs>
        <path d="M19.625,16 C19.83125,16 19.9999999,16.16875 19.9999999,16.375 L19.9999999,17.625 C19.9999999,17.83125 19.83125,18 19.625,18 L4.37499995,18 C4.16874995,18 3.99999995,17.83125 3.99999995,17.625 L3.99999995,6.37499996 C3.99999995,6.16874996 4.16874995,5.99999996 4.37499995,5.99999996 L5.62499996,5.99999996 C5.83124996,5.99999996 5.99999995,6.16874996 5.99999995,6.37499996 L5.99999995,16 L19.625,16 Z M9.99999997,14.625 L9.99999997,12.375 C9.99999997,12.16875 9.83124999,12 9.62499999,12 L8.37499998,12 C8.16874998,12 7.99999997,12.16875 7.99999997,12.375 L7.99999997,14.625 C7.99999997,14.83125 8.16874998,15 8.37499998,15 L9.62499999,15 C9.83124999,15 9.99999997,14.83125 9.99999997,14.625 Z M16,14.625 L16,10.375 C16,10.16875 15.83125,9.99999999 15.625,9.99999999 L14.375,9.99999999 C14.16875,9.99999999 14,10.16875 14,10.375 L14,14.625 C14,14.83125 14.16875,15 14.375,15 L15.625,15 C15.83125,15 16,14.83125 16,14.625 Z M13,14.625 L13,8.37499998 C13,8.16874998 12.83125,7.99999997 12.625,7.99999997 L11.375,7.99999997 C11.16875,7.99999997 11,8.16874998 11,8.37499998 L11,14.625 C11,14.83125 11.16875,15 11.375,15 L12.625,15 C12.83125,15 13,14.83125 13,14.625 Z M19,14.625 L19,7.37499997 C19,7.16874997 18.83125,6.99999997 18.625,6.99999997 L17.375,6.99999997 C17.16875,6.99999997 17,7.16874997 17,7.37499997 L17,14.625 C17,14.83125 17.16875,15 17.375,15 L18.625,15 C18.83125,15 19,14.83125 19,14.625 Z" id="path-1"></path>
    </defs>
    <g id="awesome/chart-bar" stroke="none" stroke-width="1" fill="none" fill-rule="evenodd">
        <mask id="mask-2" fill="white">
            <use xlink:href="#path-1"></use>
        </mask>
        <g fill-rule="nonzero"></g>
        <g id="Group" mask="url(#mask-2)" fill="#F25500">
            <g id="🎨-color">
                <rect id="Base" x="0" y="0" width="24" height="24"></rect>
            </g>
        </g>
    </g>
</svg>