<?xml version="1.0" encoding="UTF-8"?>
<svg width="24px" height="24px" viewBox="0 0 24 24" version="1.1" xmlns="http://www.w3.org/2000/svg" xmlns:xlink="http://www.w3.org/1999/xlink">
    <title>awesome/clipboard</title>
    <defs>
        <path d="M18,7.49999995 L18,18.4999999 C18,19.3284375 17.3284375,19.9999999 16.5,19.9999999 L7.49999996,19.9999999 C6.67156247,19.9999999 5.99999996,19.3284375 5.99999996,18.4999999 L5.99999996,7.49999995 C5.99999996,6.67156247 6.67156247,5.99999995 7.49999996,5.99999995 L9.99999996,5.99999995 C9.99999996,4.89718746 10.8971875,3.99999995 12,3.99999995 C13.1028125,3.99999995 14,4.89718746 14,5.99999995 L16.5,5.99999995 C17.3284375,5.99999995 18,6.67156247 18,7.49999995 Z M12,5.24999996 C11.5857812,5.24999996 11.25,5.58578121 11.25,5.99999996 C11.25,6.41421872 11.5857812,6.74999996 12,6.74999996 C12.4142188,6.74999996 12.75,6.41421872 12.75,5.99999996 C12.75,5.58578121 12.4142188,5.24999996 12,5.24999996 L12,5.24999996 Z M15,8.81249998 L15,8.18749998 C15,8.08394658 14.9160534,7.99999997 14.8125,7.99999997 L9.18749998,7.99999997 C9.08394659,7.99999997 8.99999998,8.08394658 8.99999998,8.18749998 L8.99999998,8.81249998 C8.99999998,8.91605337 9.08394659,8.99999997 9.18749998,8.99999997 L14.8125,8.99999997 C14.9160534,8.99999997 15,8.91605337 15,8.81249998 Z" id="path-1"></path>
    </defs>
    <g id="awesome/clipboard" stroke="none" stroke-width="1" fill="none" fill-rule="evenodd">
        <mask id="mask-2" fill="white">
            <use xlink:href="#path-1"></use>
        </mask>
        <g fill-rule="nonzero"></g>
        <g id="Group" mask="url(#mask-2)" fill="#F25500">
            <g id="🎨-color">
                <rect id="Base" x="0" y="0" width="24" height="24"></rect>
            </g>
        </g>
    </g>
</svg>